<svg xmlns="http://www.w3.org/2000/svg" xmlns:xlink="http://www.w3.org/1999/xlink" viewBox="0 0 457.94 503.37"><defs><style>.cls-1{fill:#38256c;}.cls-2{fill:#774fe5;}.cls-3{fill:#593bac;}.cls-4{fill:#71eae6;}.cls-5{fill:#54d1c8;}.cls-6{fill:#3eb7ac;}.cls-7{fill:#c7c7c7;}.cls-8{fill:#a3a3a3;}.cls-9{fill:#47448c;}.cls-10{fill:#8071bf;}.cls-11{fill:#525252;}.cls-12{fill:#636363;}.cls-13{fill:#7d7d7d;}.cls-14{fill:#545454;}.cls-15{fill:#424242;}.cls-16{fill:#ffce00;}.cls-17{fill:#fcd22e;}.cls-18{fill:url(#Degradado_sin_nombre_18);}.cls-19{fill:#ff647a;}.cls-20{fill:#ffaebe;}.cls-21{fill:#ad3b56;}.cls-22{fill:#cc4862;}.cls-23{fill:#e5bf55;}.cls-24{fill:#ffe5a4;}.cls-25{fill:#e57415;}.cls-26{fill:#e59028;}.cls-27{fill:#cea1d6;}.cls-28{fill:#f7cfff;}.cls-29{fill:#8b4f99;}.cls-30{fill:#9e60ad;}.cls-31{fill:url(#Degradado_sin_nombre_2);}.cls-32{fill:#ff7697;}.cls-33{fill:#e5590a;}.cls-34{fill:#e0e0e0;opacity:0.6;}.cls-35{fill:url(#Degradado_sin_nombre_2-2);}.cls-36{isolation:isolate;}.cls-37{fill:#1993af;}.cls-38{fill:#198799;}.cls-39{fill:#0e6f7f;}.cls-40{fill:#095f68;}.cls-41{fill:#20a2c9;}.cls-42{fill:url(#Degradado_sin_nombre_2-3);}.cls-43{fill:#ea6a39;}.cls-44{fill:#ff9d4d;}.cls-45{fill:#f24179;}.cls-46{fill:#fff;}.cls-47{fill:url(#Degradado_sin_nombre_2-4);}.cls-48{fill:#117889;}.cls-49{fill:#878787;}.cls-50{fill:#4ed4f4;}.cls-51{fill:#8c8c8c;}.cls-52{fill:#ffe252;}.cls-53{fill:#f0f0f0;}.cls-54{fill:url(#Degradado_sin_nombre_2-5);}.cls-55{fill:#fecfae;}.cls-56{fill:#f6befc;}.cls-57{fill:#aaa;}.cls-58{fill:#51476b;}.cls-59{fill:#775da8;}.cls-60{fill:#dc8ae2;}.cls-61{fill:#a86c43;}.cls-62{fill:#895430;}.cls-63{fill:#e26cef;}.cls-64{fill:#f2a73b;}.cls-65{fill:#af65b7;}</style><linearGradient id="Degradado_sin_nombre_18" x1="138.86" y1="127.71" x2="138.86" gradientUnits="userSpaceOnUse"><stop offset="0" stop-color="#40ffff"/><stop offset="0" stop-color="#40ffff" stop-opacity="0.99"/><stop offset="0.13" stop-color="#40ffff" stop-opacity="0.74"/><stop offset="0.26" stop-color="#40ffff" stop-opacity="0.51"/><stop offset="0.38" stop-color="#40ffff" stop-opacity="0.33"/><stop offset="0.5" stop-color="#40ffff" stop-opacity="0.19"/><stop offset="0.61" stop-color="#40ffff" stop-opacity="0.08"/><stop offset="0.7" stop-color="#40ffff" stop-opacity="0.02"/><stop offset="0.78" stop-color="#40ffff" stop-opacity="0"/></linearGradient><linearGradient id="Degradado_sin_nombre_2" x1="163.44" y1="219.57" x2="163.44" y2="151.16" gradientUnits="userSpaceOnUse"><stop offset="0" stop-color="#fff"/><stop offset="0" stop-color="#fff" stop-opacity="0.99"/><stop offset="0.15" stop-color="#fff" stop-opacity="0.74"/><stop offset="0.3" stop-color="#fff" stop-opacity="0.51"/><stop offset="0.44" stop-color="#fff" stop-opacity="0.33"/><stop offset="0.57" stop-color="#fff" stop-opacity="0.19"/><stop offset="0.7" stop-color="#fff" stop-opacity="0.08"/><stop offset="0.81" stop-color="#fff" stop-opacity="0.02"/><stop offset="0.9" stop-color="#fff" stop-opacity="0"/></linearGradient><linearGradient id="Degradado_sin_nombre_2-2" x1="215.66" y1="292.62" x2="215.66" y2="224.21" xlink:href="#Degradado_sin_nombre_2"/><linearGradient id="Degradado_sin_nombre_2-3" x1="359.2" y1="182.44" x2="359.2" y2="114.03" xlink:href="#Degradado_sin_nombre_2"/><linearGradient id="Degradado_sin_nombre_2-4" x1="94.23" y1="324.8" x2="94.23" y2="256.39" xlink:href="#Degradado_sin_nombre_2"/><linearGradient id="Degradado_sin_nombre_2-5" x1="284.45" y1="284.67" x2="284.45" y2="216.26" xlink:href="#Degradado_sin_nombre_2"/></defs><title>banner</title><g id="Layer_2" data-name="Layer 2"><g id="Layer_13" data-name="Layer 13"><polygon class="cls-1" points="183.18 503.37 457.94 344.72 274.76 238.92 0 397.57 183.18 503.37"/><polygon class="cls-2" points="183.18 475.32 457.94 316.67 274.76 210.87 0 369.52 183.18 475.32"/><polygon class="cls-3" points="183.18 475.32 183.18 479.41 457.94 320.75 457.94 316.67 183.18 475.32"/><polygon class="cls-3" points="183.18 479.41 0 373.61 0 369.52 183.18 475.32 183.18 479.41"/><polygon class="cls-4" points="287.62 291.29 143.7 208.19 169.87 193.09 313.79 276.19 287.62 291.29"/><polygon class="cls-5" points="287.62 291.29 287.62 294.2 143.7 211.1 143.7 208.19 287.62 291.29"/><polygon class="cls-6" points="287.62 294.2 313.79 279.1 313.79 276.19 287.62 291.29 287.62 294.2"/><polygon class="cls-4" points="366.13 185.53 222.21 102.44 248.38 87.34 392.3 170.43 366.13 185.53"/><polygon class="cls-5" points="366.13 185.53 366.13 188.45 222.21 105.35 222.21 102.44 366.13 185.53"/><polygon class="cls-6" points="366.13 188.45 392.3 173.35 392.3 170.43 366.13 185.53 366.13 188.45"/><polygon class="cls-4" points="248.6 377.09 287.85 354.43 274.76 346.87 235.51 369.54 248.6 377.09"/><polygon class="cls-6" points="248.6 377.09 248.6 392.2 287.85 369.54 287.85 354.43 248.6 377.09"/><polygon class="cls-5" points="248.6 392.2 235.51 384.64 235.51 369.54 248.6 377.09 248.6 392.2"/><polygon class="cls-4" points="235.51 354.43 274.76 331.76 261.68 324.21 222.43 346.87 235.51 354.43"/><polygon class="cls-6" points="235.51 354.43 235.51 369.54 274.76 346.87 274.76 331.76 235.51 354.43"/><polygon class="cls-5" points="235.51 369.54 222.43 361.98 222.43 346.87 235.51 354.43 235.51 369.54"/><polygon class="cls-4" points="222.43 331.76 261.68 309.1 248.6 301.55 209.34 324.21 222.43 331.76"/><polygon class="cls-6" points="222.43 331.76 222.43 346.87 261.68 324.21 261.68 309.1 222.43 331.76"/><polygon class="cls-5" points="222.43 346.87 209.34 339.32 209.34 324.21 222.43 331.76 222.43 346.87"/><polygon class="cls-7" points="209.34 309.1 248.6 286.44 235.51 278.89 196.26 301.55 209.34 309.1"/><polygon class="cls-6" points="209.34 309.1 209.34 324.21 248.6 301.55 248.6 286.44 209.34 309.1"/><polygon class="cls-5" points="209.34 324.21 196.26 316.66 196.26 301.55 209.34 309.1 209.34 324.21"/><polygon class="cls-4" points="130.84 351.52 248.6 283.53 222.43 268.43 104.67 336.42 130.84 351.52"/><polygon class="cls-6" points="130.84 351.52 130.84 354.43 248.6 286.44 248.6 283.53 130.84 351.52"/><polygon class="cls-8" points="130.84 354.43 104.67 339.33 104.67 336.42 130.84 351.52 130.84 354.43"/><polygon class="cls-4" points="130.56 351.82 65.42 313.77 91.59 298.67 156.73 336.72 130.56 351.82"/><polygon class="cls-5" points="130.56 351.82 130.56 354.73 65.42 316.68 65.42 313.77 130.56 351.82"/><polygon class="cls-6" points="130.56 354.73 156.73 339.63 156.73 336.72 130.56 351.82 130.56 354.73"/><polygon class="cls-4" points="130.62 306.39 91.36 283.73 104.45 276.17 143.7 298.84 130.62 306.39"/><polygon class="cls-5" points="130.62 306.39 130.62 321.5 91.36 298.84 91.36 283.73 130.62 306.39"/><polygon class="cls-6" points="130.62 321.5 143.7 313.94 143.7 298.84 130.62 306.39 130.62 321.5"/><polygon class="cls-4" points="143.7 283.73 104.45 261.07 117.53 253.51 156.78 276.17 143.7 283.73"/><polygon class="cls-5" points="143.7 283.73 143.7 298.84 104.45 276.17 104.45 261.07 143.7 283.73"/><polygon class="cls-6" points="143.7 298.84 156.78 291.28 156.78 276.17 143.7 283.73 143.7 298.84"/><polygon class="cls-4" points="156.78 261.07 117.53 238.4 130.62 230.85 169.87 253.51 156.78 261.07"/><polygon class="cls-5" points="156.78 261.07 156.78 276.17 117.53 253.51 117.53 238.4 156.78 261.07"/><polygon class="cls-6" points="156.78 276.17 169.87 268.62 169.87 253.51 156.78 261.07 156.78 276.17"/><polygon class="cls-4" points="169.87 238.4 130.62 215.74 143.7 208.19 182.95 230.85 169.87 238.4"/><polygon class="cls-5" points="169.87 238.4 169.87 253.51 130.62 230.85 130.62 215.74 169.87 238.4"/><polygon class="cls-6" points="169.87 253.51 182.95 245.96 182.95 230.85 169.87 238.4 169.87 253.51"/><polygon class="cls-4" points="313.8 261.08 274.55 238.42 287.63 230.86 326.88 253.52 313.8 261.08"/><polygon class="cls-5" points="313.8 261.08 313.8 276.19 274.55 253.52 274.55 238.42 313.8 261.08"/><polygon class="cls-6" points="313.8 276.19 326.88 268.63 326.88 253.52 313.8 261.08 313.8 276.19"/><polygon class="cls-4" points="326.88 238.42 287.63 215.75 300.71 208.2 339.96 230.86 326.88 238.42"/><polygon class="cls-5" points="326.88 238.42 326.88 253.52 287.63 230.86 287.63 215.75 326.88 238.42"/><polygon class="cls-6" points="326.88 253.52 339.96 245.97 339.96 230.86 326.88 238.42 326.88 253.52"/><polygon class="cls-4" points="339.96 215.75 300.71 193.09 313.8 185.54 353.05 208.2 339.96 215.75"/><polygon class="cls-5" points="339.96 215.75 339.96 230.86 300.71 208.2 300.71 193.09 339.96 215.75"/><polygon class="cls-6" points="339.96 230.86 353.05 223.31 353.05 208.2 339.96 215.75 339.96 230.86"/><polygon class="cls-4" points="353.05 193.09 313.8 170.43 326.88 162.88 366.13 185.54 353.05 193.09"/><polygon class="cls-5" points="353.05 193.09 353.05 208.2 313.8 185.54 313.8 170.43 353.05 193.09"/><polygon class="cls-6" points="353.05 208.2 366.13 200.65 366.13 185.54 353.05 193.09 353.05 208.2"/><polygon class="cls-6" points="259.09 126.65 259.09 111.54 246.01 119.09 246.01 103.98 232.93 111.54 232.93 96.43 219.84 103.98 219.84 88.88 206.76 96.43 206.76 156.86 246.01 134.2 259.09 126.65"/><polygon class="cls-5" points="206.76 156.86 167.5 134.2 167.5 73.77 206.76 96.43 206.76 156.86"/><polygon class="cls-4" points="219.84 88.88 180.59 66.21 167.5 73.77 206.76 96.43 219.84 88.88"/><polygon class="cls-4" points="232.93 96.43 219.84 88.88 219.84 103.98 232.93 96.43"/><polygon class="cls-4" points="246.01 103.98 232.93 96.43 232.93 111.54 246.01 103.98"/><polygon class="cls-4" points="259.09 111.54 246.01 103.98 246.01 119.09 259.09 111.54"/><polygon class="cls-4" points="206.76 96.45 167.5 73.79 99.61 113.01 138.86 135.68 206.76 96.45"/><polygon class="cls-6" points="206.76 96.45 206.76 99.87 138.86 139.1 138.86 135.68 206.76 96.45"/><polygon class="cls-5" points="138.86 135.68 99.61 113.01 99.61 116.44 138.86 139.1 138.86 135.68"/><path class="cls-9" d="M106.71,107.71V110h0a6,6,0,0,0,3,5.18l23.32,13.49a11.71,11.71,0,0,0,11.72,0l23.12-13.32a6.14,6.14,0,0,0,3.11-5.5h0l0-2.25-2.18-.88-1.54,2.6-21-12.16a14.53,14.53,0,0,0-14.54,0l-21.26,12.25-.83-1.29C109.6,108.1,106.71,107.71,106.71,107.71Z"/><path class="cls-10" d="M109.74,102.12a6.08,6.08,0,0,0,0,10.52l23.32,13.49a11.71,11.71,0,0,0,11.72,0l23.13-13.32a6.22,6.22,0,0,0,0-10.77L149.83,91.57a17.91,17.91,0,0,0-16.74-.66Z"/><path class="cls-11" d="M136.81,83.23c13.24-.21,23.86-7.24,23.72-15.7V39.45l-47.93,1.06V68.3C112.73,76.76,123.57,83.44,136.81,83.23Z"/><path class="cls-12" d="M136.81,77.46c13.24-.22,23.86-7.25,23.72-15.71V39.45l-47.93,1.06v22C112.73,71,123.57,77.67,136.81,77.46Z"/><path class="cls-12" d="M136.31,24.81c-13.24.21-23.86,7.24-23.72,15.7s11,15.14,24.21,14.93,23.86-7.24,23.73-15.7S149.55,24.59,136.31,24.81Z"/><polygon class="cls-13" points="137.38 12.55 89.64 40.12 137.38 67.68 185.12 40.12 137.38 12.55"/><polygon class="cls-14" points="185.12 40.12 185.12 41.26 137.38 68.82 137.38 67.68 185.12 40.12"/><polygon class="cls-15" points="137.38 68.82 89.64 41.26 89.64 40.12 137.38 67.68 137.38 68.82"/><path class="cls-16" d="M94.79,57a.58.58,0,0,0,.57-.57V43.46a4.43,4.43,0,0,1,.93-3,2.25,2.25,0,0,1,1.63-.8c.38,0,.76.14.76.4a.57.57,0,1,0,1.13,0c0-.89-.79-1.53-1.89-1.53a3.35,3.35,0,0,0-2.48,1.17,5.47,5.47,0,0,0-1.22,3.76V56.39A.58.58,0,0,0,94.79,57Z"/><path class="cls-17" d="M94.32,58.7h1.11A2.26,2.26,0,0,1,97.7,61v7.41a2.22,2.22,0,0,1-.07.57V70a.29.29,0,0,1-.29.29.28.28,0,0,1-.24-.13v.17a.29.29,0,0,1-.29.29.27.27,0,0,1-.23-.14.3.3,0,0,1-.24.14.26.26,0,0,1-.17-.07v.06a.29.29,0,0,1-.29.29h-.06V71a.29.29,0,0,1-.29.29.3.3,0,0,1-.29-.28.28.28,0,0,1-.13,0L95,71a.28.28,0,0,1-.28.27.31.31,0,0,1-.23-.12.27.27,0,0,1-.22.12.28.28,0,0,1-.27-.21.31.31,0,0,1-.23.12H93.7v.11a.29.29,0,1,1-.58,0v-.61a.28.28,0,0,1-.2.08.29.29,0,0,1-.29-.29v-.54a.29.29,0,0,1-.58,0V61A2.26,2.26,0,0,1,94.32,58.7Z"/><path class="cls-17" d="M94.87,60.35h0a1.76,1.76,0,0,0,1.76-1.75V55.31a1.76,1.76,0,0,0-1.76-1.75h0a1.76,1.76,0,0,0-1.75,1.75V58.6A1.76,1.76,0,0,0,94.87,60.35Z"/><path class="cls-18" d="M171,107.4a6.17,6.17,0,0,1-3.11,5.42l-23.13,13.32a11.71,11.71,0,0,1-11.72,0l-23.32-13.49a6,6,0,0,1-3-5.07V0H171Z"/><path class="cls-9" d="M146.22,208.86v1.19h0v0h0a3.22,3.22,0,0,0,1.62,2.78l12.49,7.22a6.26,6.26,0,0,0,6.28,0L179,213a3.29,3.29,0,0,0,1.66-2.94h0v-1.2l-1.16-.47-.83,1.39-11.26-6.52a7.8,7.8,0,0,0-7.79,0l-11.39,6.56c-.25-.38-.44-.69-.45-.69S146.22,208.86,146.22,208.86Z"/><path class="cls-10" d="M147.84,205.87a3.25,3.25,0,0,0,0,5.63l12.49,7.23a6.29,6.29,0,0,0,6.28,0L179,211.6a3.33,3.33,0,0,0,0-5.77l-9.68-5.62a9.62,9.62,0,0,0-9-.35Z"/><polygon class="cls-19" points="167.21 203.29 181.01 195.3 174.65 191.64 163.44 201.13 167.21 203.29"/><path class="cls-20" d="M167.16,203l13.17-7.62a11.59,11.59,0,0,1,0-3.19L167,199.84s-1.13,2.54.06,3.23Z"/><path class="cls-21" d="M181,195.3l-13.6,7.87c-1.06-.78,0-3.07,0-3.07l13.6-7.88v-.28l-14.08,7.84s-1.35,2.89.28,3.83l13.8-8Z"/><polygon class="cls-19" points="147.53 188.62 167.21 199.94 181.01 191.94 161.33 180.63 147.53 188.62"/><path class="cls-22" d="M167.21,203.61c-1.29-1,0-3.67,0-3.67l-19.68-11.32s-1.28,2.68,0,3.67Z"/><polygon class="cls-23" points="167.21 198.95 181.01 190.95 174.65 187.29 163.44 196.78 167.21 198.95"/><path class="cls-24" d="M167.16,198.64,180.33,191a11.59,11.59,0,0,1,0-3.19L167,195.49s-1.13,2.55.06,3.23Z"/><path class="cls-25" d="M181,191l-13.6,7.87c-1.06-.78,0-3.07,0-3.07l13.6-7.88v-.28l-14.08,7.84s-1.35,2.89.28,3.83l13.8-8Z"/><polygon class="cls-23" points="147.53 184.27 167.21 195.59 181.01 187.59 161.33 176.28 147.53 184.27"/><path class="cls-26" d="M167.21,199.26c-1.29-1,0-3.67,0-3.67l-19.68-11.32s-1.28,2.68,0,3.67Z"/><polygon class="cls-27" points="167.21 194.76 181.01 186.77 174.65 183.11 163.44 192.6 167.21 194.76"/><path class="cls-28" d="M167.16,194.45l13.17-7.62a11.61,11.61,0,0,1,0-3.19L167,191.3s-1.13,2.55.06,3.24Z"/><path class="cls-29" d="M181,186.77l-13.6,7.87c-1.06-.78,0-3.07,0-3.07l13.6-7.88v-.28l-14.08,7.84s-1.35,2.88.28,3.83l13.8-8Z"/><polygon class="cls-27" points="147.53 180.09 167.21 191.41 181.01 183.41 161.33 172.1 147.53 180.09"/><path class="cls-30" d="M167.21,195.08c-1.29-1,0-3.68,0-3.68l-19.68-11.31s-1.28,2.68,0,3.67Z"/><path class="cls-31" d="M180.67,208.7a3.34,3.34,0,0,1-1.67,2.9l-12.39,7.14a6.29,6.29,0,0,1-6.28,0l-12.49-7.23a3.21,3.21,0,0,1-1.62-2.71V151.16h34.45Z"/><path class="cls-9" d="M198.43,281.91v1.19h0v0h0a3.2,3.2,0,0,0,1.62,2.77l12.5,7.23a6.27,6.27,0,0,0,6.27,0L231.22,286a3.32,3.32,0,0,0,1.67-2.95h0v-1.21l-1.17-.47-.83,1.4-11.26-6.52a7.8,7.8,0,0,0-7.79,0l-11.39,6.57-.44-.7S198.43,281.91,198.43,281.91Z"/><path class="cls-10" d="M200.06,278.92a3.25,3.25,0,0,0,0,5.63l12.5,7.23a6.27,6.27,0,0,0,6.27,0l12.39-7.13a3.33,3.33,0,0,0,0-5.77l-9.69-5.62a9.6,9.6,0,0,0-9-.35Z"/><path class="cls-22" d="M216,279.55c-1.25,0-2.25-.71-2.22-1.51l.09-6.26,4.53.16-.09,6.23C218.26,279,217.22,279.59,216,279.55Z"/><path class="cls-32" d="M216.14,270.42c1.26,0,2.25.72,2.23,1.52s-1.06,1.42-2.31,1.38-2.25-.72-2.23-1.52S214.89,270.39,216.14,270.42Z"/><path class="cls-26" d="M216.07,273c-1,0-1.75-.56-1.73-1.18l.15-10.78,3.52.12-.15,10.77C217.84,272.54,217,273,216.07,273Z"/><path class="cls-13" d="M216.29,260c1,0,1.74.55,1.72,1.17s-.82,1.11-1.79,1.08-1.75-.56-1.73-1.18S215.31,260,216.29,260Z"/><path class="cls-33" d="M213.51,260.39l-.2-.11-1.25-.75.21.11.07,0,.15.07,0,0,.36.1h0l.27.05h.09l.17,0h.62l.11,0,.15,0,.09,0,.16,0,.1,0,.17,0,.08,0,.52-.2.08,0,.18-.09.1,0,.24-.13.28-.17h0l.26-.17.09-.06.18-.12.1-.08.16-.12.12-.09.15-.12a.52.52,0,0,1,.11-.1l.15-.13.11-.11.15-.13.1-.1.15-.15.1-.1.17-.18.07-.08c.08-.08.15-.17.23-.26l0,0,.19-.24.24-.3h0l.33-.44a.41.41,0,0,1,0-.09c.13-.19.26-.38.38-.58l.05-.08c.08-.14.17-.28.25-.43l.08-.15.09-.17.12-.24,0-.08.15-.3,0-.09a1.6,1.6,0,0,0,.1-.23s0-.07.05-.1l.09-.23a.36.36,0,0,1,0-.09c0-.1.07-.2.1-.3v0c0-.11.08-.22.11-.33l0-.1.07-.22,0-.12.06-.21,0-.12a2.25,2.25,0,0,1,.05-.22.52.52,0,0,1,0-.11,2.56,2.56,0,0,0,0-.27v0c0-.1,0-.21.05-.31s0-.06,0-.09l0-.23a.45.45,0,0,1,0-.11c0-.07,0-.14,0-.21a.34.34,0,0,0,0-.1c0-.1,0-.2,0-.3v-.31s0-.06,0-.08a1.48,1.48,0,0,0,0-.21s0-.08,0-.12,0-.11,0-.17,0-.08,0-.12l0-.15s0-.09,0-.13l0-.14c0-.05,0-.1,0-.15l0-.12-.06-.18,0-.09a2.52,2.52,0,0,0-.12-.29v0a3.9,3.9,0,0,0-.19-.35v0l-.18-.26-.05-.06-.19-.21v0l-.22-.19-.06-.05-.24-.17,1.24.75.24.17.06,0a2.09,2.09,0,0,1,.22.2l0,0a2,2,0,0,1,.19.21l0,.06a1.44,1.44,0,0,1,.18.25h0v0a3.84,3.84,0,0,1,.18.35v0h0a2.33,2.33,0,0,1,.11.28v0a.14.14,0,0,1,0,.07l.06.18s0,0,0,0,0,.05,0,.07a.94.94,0,0,1,0,.16s0,0,0,.06a.17.17,0,0,0,0,.07.68.68,0,0,1,0,.14s0,0,0,.06a.28.28,0,0,0,0,.09.5.5,0,0,0,0,.12v.06a.41.41,0,0,1,0,.11.49.49,0,0,1,0,.12v0a.86.86,0,0,0,0,.16v.38h0v.41a.49.49,0,0,0,0,.12s0,.06,0,.09,0,.07,0,.11a.17.17,0,0,1,0,.07.77.77,0,0,1,0,.15.28.28,0,0,1,0,.09v0c0,.1,0,.19,0,.28h0v0c0,.08,0,.16,0,.24v0a.43.43,0,0,1,0,.11l0,.14s0,.05,0,.07l0,.13a.29.29,0,0,0,0,.09l0,.11a.5.5,0,0,0,0,.13l0,.06s0,.1,0,.16a.42.42,0,0,0,0,.1v0l-.09.29h0v0a2.6,2.6,0,0,1-.1.25v0l0,.1s0,.09-.05.13a.36.36,0,0,0,0,.09l0,.11,0,.08-.06.15a.3.3,0,0,0,0,.08v0c-.05.09-.09.18-.13.27h0a.3.3,0,0,1,0,.08l-.1.2,0,0a7.5,7.5,0,0,0-.16.31v0c-.08.14-.16.29-.25.43l0,0,0,0c-.12.2-.24.4-.37.59l0,0,0,.05c-.11.15-.21.3-.33.45h0l-.24.31h0l-.18.22,0,0h0l-.22.25h0l-.07.07-.14.16,0,0-.09.1-.11.11,0,0-.11.1-.09.09s0,0-.05.05l-.12.1-.08.08-.07,0a.52.52,0,0,1-.11.1l-.07.06-.08.06-.12.09,0,.05-.1.07-.11.08,0,0-.14.09-.09.06,0,0-.24.15h0l-.22.13,0,0-.18.1-.07,0-.09.05-.07,0-.12.06-.08,0,0,0-.23.09h0l-.23.08h0l-.09,0-.11,0-.06,0-.1,0-.07,0-.08,0-.1,0h-.15l-.11,0h-.88l-.26,0h0a2,2,0,0,1-.35-.1h-.06l-.15-.06Z"/><path class="cls-33" d="M208.54,256.67v-.07s0-.09,0-.13,0-.11,0-.17,0-.08,0-.12a.76.76,0,0,0,0-.15.28.28,0,0,0,0-.09l0-.21s0-.08,0-.12v0l.06-.38h0v-.05l.06-.32v-.06a.83.83,0,0,1,0-.15,1.16,1.16,0,0,1,0-.18.36.36,0,0,1,0-.1c0-.06,0-.11,0-.17l0-.12c0-.06,0-.11.05-.16s0-.11,0-.16a.31.31,0,0,0,0-.08,1.87,1.87,0,0,0,.07-.22.74.74,0,0,0,0-.14l0,0c0-.13.08-.26.13-.39h0v0c0-.11.08-.23.13-.34l0-.05a.5.5,0,0,1,.05-.13,1.46,1.46,0,0,1,.07-.19l.05-.11.06-.15,0-.1.09-.21a.37.37,0,0,0,0-.11l0,0,.17-.36h0l0-.11.14-.27,0-.05.12-.22a1.62,1.62,0,0,0,.1-.18l0,0,.33-.57,0-.05a.1.1,0,0,1,0,0c.16-.27.33-.53.5-.79l0,0,.05-.07c.14-.21.29-.41.44-.61h0l.33-.41v0l.24-.29.05-.06h0l.29-.33,0,0,.09-.1.19-.2,0,0a.8.8,0,0,1,.13-.13l.14-.15.06-.05.14-.14.12-.12.08-.07.15-.14.11-.1.09-.07.15-.13.1-.08.1-.09.16-.12.08-.06.13-.1.14-.11.06,0,.18-.12.12-.09,0,0,.33-.21h0l.3-.18.07,0,.24-.13.1,0,.12-.07.1,0,.15-.07.11-.05,0,0,.31-.13.3-.11h0l.11,0,.15-.05.08,0,.13,0,.11,0,.1,0,.14,0,.07,0,.12,0,.15,0h.83l.24,0h.12l.35,0h0l.07,0,.21.05.1,0,.14,0,0,0,.2.08.09,0,.28.15,1.25.75-.28-.15-.1-.05-.2-.08-.16-.06-.11,0-.21-.06h-.1l-.36-.06h-.84l-.16,0-.18,0-.16,0-.19,0-.13,0-.21,0-.14,0-.23.07-.11,0-.34.12h0l-.35.14-.11.05-.25.12-.12.06-.33.18-.37.21,0,0-.36.23-.12.08-.23.17-.15.11-.21.16-.15.12-.2.16-.16.14-.2.17-.15.14-.2.18-.14.14-.2.2-.13.13-.23.25-.09.1c-.11.11-.21.23-.32.35l0,.05-.26.32c-.11.14-.22.27-.32.41h0l-.44.6-.07.12c-.18.25-.35.52-.51.78a.36.36,0,0,1-.07.1l-.33.58a2.12,2.12,0,0,0-.11.21,2.53,2.53,0,0,0-.12.23c-.06.1-.11.21-.17.32a.47.47,0,0,1,0,.1c-.07.14-.13.28-.19.42a.37.37,0,0,0,0,.11c-.05.1-.09.21-.14.31l-.06.14-.12.3s0,.09-.05.13l-.15.4v0c-.05.15-.1.29-.14.44s0,.09,0,.14l-.09.29c0,.06,0,.11,0,.17s-.05.18-.08.28a.94.94,0,0,1,0,.16l-.06.29,0,.15c0,.13-.05.25-.08.37v.06l-.06.42s0,.09,0,.13l0,.3c0,.05,0,.1,0,.15a2.64,2.64,0,0,1,0,.28.66.66,0,0,1,0,.14c0,.13,0,.27,0,.4s0,.28,0,.42v.11a2.46,2.46,0,0,0,0,.28c0,.05,0,.1,0,.15a2,2,0,0,1,0,.23l0,.17,0,.2,0,.18a1.16,1.16,0,0,1,0,.18c0,.07,0,.14,0,.21s0,.11.05.16.05.16.07.24,0,.09.05.13.1.26.15.38.09.19.14.28h0l.15.26c.08.13.16.24.24.35l.06.08a3.58,3.58,0,0,0,.26.29l0,0a2.55,2.55,0,0,0,.3.26l.07.06.33.23h0l-1.24-.75-.33-.22-.08-.06a3.71,3.71,0,0,1-.29-.27l0,0a3.58,3.58,0,0,1-.26-.29l-.06-.08a2.62,2.62,0,0,1-.24-.34h0c-.1-.16-.19-.34-.28-.52h0c-.06-.13-.11-.26-.16-.39v0l0-.1c0-.07,0-.15-.08-.24a.14.14,0,0,0,0-.06s0-.06,0-.09,0-.14-.05-.21a.29.29,0,0,1,0-.09s0-.06,0-.09l0-.18a.3.3,0,0,1,0-.1s0-.07,0-.11a.88.88,0,0,0,0-.16s0-.06,0-.09,0-.09,0-.14,0-.1,0-.16v-.06a1.48,1.48,0,0,1,0-.21s0-.08,0-.12V257C208.53,256.9,208.53,256.78,208.54,256.67Z"/><path class="cls-34" d="M216.82,259.57c-3.12,1.74-5.62.27-5.58-3.28A12.32,12.32,0,0,1,217,246.7c3.12-1.74,5.61-.27,5.57,3.28a12.28,12.28,0,0,1-5.71,9.59"/><path class="cls-26" d="M225,249.26a16.57,16.57,0,0,1-7.7,12.91c-4.19,2.34-7.55.37-7.5-4.42a16.53,16.53,0,0,1,7.7-12.9C221.66,242.5,225,244.48,225,249.26Zm-7.67,10.68a12.3,12.3,0,0,0,5.71-9.59c0-3.55-2.45-5-5.57-3.28a12.32,12.32,0,0,0-5.72,9.59c0,3.56,2.46,5,5.58,3.28"/><path class="cls-35" d="M232.88,281.75a3.32,3.32,0,0,1-1.67,2.9l-12.39,7.13a6.27,6.27,0,0,1-6.27,0l-12.5-7.23a3.22,3.22,0,0,1-1.62-2.72V224.21h34.45Z"/><path class="cls-9" d="M342,171.73v1.19h0v0h0a3.21,3.21,0,0,0,1.62,2.78l12.5,7.23a6.27,6.27,0,0,0,6.27,0l12.39-7.13a3.32,3.32,0,0,0,1.66-3h0v-1.2l-1.17-.47-.83,1.39-11.26-6.51a7.77,7.77,0,0,0-7.79,0L344,172.65c-.25-.38-.44-.68-.44-.69S342,171.73,342,171.73Z"/><path class="cls-10" d="M343.61,168.73a3.26,3.26,0,0,0,0,5.64l12.5,7.22a6.25,6.25,0,0,0,6.27,0l12.39-7.14a3.33,3.33,0,0,0,0-5.77l-9.69-5.61a9.62,9.62,0,0,0-9-.35Z"/><g class="cls-36"><polygon class="cls-37" points="364.9 162.46 362.95 161.33 363.39 164.58 365.33 165.71 364.9 162.46"/><polygon class="cls-37" points="378.01 143.75 376.06 142.62 373.02 143.9 374.97 145.03 378.01 143.75"/><path class="cls-38" d="M363.27,158.78l-1.95-1.14a4,4,0,0,0,.42.2,1.89,1.89,0,0,0,.34.09l.06,0a2.7,2.7,0,0,0,.41.05h.55a2.6,2.6,0,0,0,.45-.07h0a4.27,4.27,0,0,0,.48-.13h0l.51-.21,0,0,.54-.27.54-.35,0,0a6,6,0,0,0,.5-.38l.05,0,.47-.4,0-.05.45-.46,0,0,.46-.53h0a13.53,13.53,0,0,0,.83-1.12l.22-.35.18-.29a.64.64,0,0,1,.08-.14l.27-.51,0-.06c.11-.2.2-.41.3-.63v0a5.9,5.9,0,0,0,.25-.63l0,0c.08-.21.15-.43.22-.65v0c.06-.21.12-.42.17-.63v-.06c.05-.21.09-.42.12-.64h0c0-.21.06-.43.07-.64v-.05c0-.21,0-.42,0-.63a5.88,5.88,0,0,0,0-.6v-.05c0-.17,0-.34-.07-.5l0-.07c0-.16-.07-.31-.11-.45l0-.08q-.08-.21-.15-.39l0,0a3.78,3.78,0,0,0-.22-.4l0,0-.21-.28-.09-.09a1.8,1.8,0,0,0-.2-.19l-.09-.08a2.18,2.18,0,0,0-.31-.22l1.94,1.13a3.62,3.62,0,0,1,.32.22l.09.08.2.19a.39.39,0,0,1,.08.1,1.78,1.78,0,0,1,.21.27l0,0h0a3.39,3.39,0,0,1,.2.38h0s0,0,0,0a2.72,2.72,0,0,1,.11.25l.05.14a.24.24,0,0,0,0,.08l0,.07c0,.09.05.18.07.28s0,.07,0,.1v.07a.3.3,0,0,1,0,.1,2.17,2.17,0,0,1,0,.25c0,.05,0,.1,0,.15v.05s0,0,0,.07,0,.17,0,.25a2.44,2.44,0,0,1,0,.27h0v.25c0,.08,0,.17,0,.26a.49.49,0,0,1,0,.12v.05a.28.28,0,0,1,0,.09,1.24,1.24,0,0,1,0,.27l0,.27h0c0,.09,0,.17,0,.26l-.06.28a.44.44,0,0,0,0,.1l0,.06,0,.13c0,.09-.05.19-.07.28l-.06.22,0,0v0a1.31,1.31,0,0,1-.09.28l-.09.28,0,.05,0,0-.06.17c0,.08-.07.17-.11.26s-.05.13-.08.19l0,0v0l-.12.26-.14.29,0,.05,0,0-.12.22-.16.29a1,1,0,0,1-.08.14l0,.06c0,.08-.1.15-.14.23l-.23.36,0,.05c-.11.17-.23.33-.35.49l-.24.32-.2.25h0l-.21.25-.21.23,0,0,0,0-.15.15-.23.23a.23.23,0,0,0-.07.07l-.06.05-.11.1-.24.21-.11.09-.06,0-.08.06-.23.18-.18.13,0,0,0,0-.23.15-.23.15-.06,0-.17.09-.22.12-.15.07h0l0,0-.22.1-.22.08H366l-.15.05-.22.06-.11,0h-.12l-.23,0h-.78l-.32,0h0l-.07,0a1.57,1.57,0,0,1-.31-.08h0a2.68,2.68,0,0,1-.42-.19Z"/><polygon class="cls-11" points="376.1 139.59 374.15 138.46 371.56 136.98 373.5 138.11 376.1 139.59"/><polygon class="cls-39" points="360 160.81 358.05 159.68 356.21 163.56 358.15 164.7 360 160.81"/><polygon class="cls-37" points="373.5 138.11 371.56 136.98 369.11 140.52 371.06 141.65 373.5 138.11"/><path class="cls-40" d="M360,160.81h0a3.94,3.94,0,0,1-.39-.7.25.25,0,0,1,0-.07,7.91,7.91,0,0,1-.28-.78l-2-1.13c0,.15.09.29.14.43l.15.35,0,.07,0,0a4.1,4.1,0,0,0,.3.55l.07.11,1.95,1.13Z"/><path class="cls-39" d="M370.3,141.67h-.15l-.27,0-.13,0-.4.09-1.94-1.13h0l.33-.08h.06l.13,0,.16,0h1l1.95,1.13h-.52Z"/><path class="cls-39" d="M359.27,154.09,357.33,153v-.06c0-.14.06-.28.1-.43s.07-.29.11-.43.05-.15.07-.23l0-.07a.65.65,0,0,1,0-.13c0-.14.08-.28.13-.42s.1-.27.14-.41.05-.13.07-.19l2,1.13c-.14.38-.27.77-.38,1.15l0,.07C359.45,153.33,359.35,153.71,359.27,154.09Z"/><path class="cls-39" d="M363.14,146.22l-1.94-1.13.07-.09c.1-.12.2-.24.31-.35l.31-.35a1.14,1.14,0,0,1,.11-.11l.06-.07.16-.17.35-.34.33-.31,2,1.13c-.29.26-.57.53-.84.82l-.07.07C363.67,145.61,363.4,145.91,363.14,146.22Z"/><polygon class="cls-39" points="356.23 156.33 354.28 155.2 354.3 159.4 356.24 160.53 356.23 156.33"/><polygon class="cls-37" points="359.27 154.09 357.32 152.96 354.28 155.2 356.23 156.33 359.27 154.09"/><polygon class="cls-39" points="368.92 138.58 366.97 137.44 363.32 139.56 365.26 140.69 368.92 138.58"/><polygon class="cls-37" points="365.26 140.69 363.32 139.56 362.9 143.3 364.85 144.43 365.26 140.69"/><polygon class="cls-40" points="358.11 149.97 356.17 148.84 358.02 150.59 359.97 151.72 358.11 149.97"/><polygon class="cls-37" points="363.14 146.22 361.2 145.09 358.74 144.38 360.69 145.51 363.14 146.22"/><path class="cls-41" d="M356.23,156.33l3-2.24a17.71,17.71,0,0,1,.7-2.37L358.11,150l2.58-4.46,2.45.71a17.13,17.13,0,0,1,1.71-1.79l.41-3.74,3.66-2.11.43,3.25a5.73,5.73,0,0,1,1.71-.18l2.44-3.54,2.6,1.48-1.85,3.88A5.9,5.9,0,0,1,375,145l3-1.27V148l-3,2.24a17.71,17.71,0,0,1-.7,2.37l1.86,1.74-2.58,4.47-2.45-.72a17.25,17.25,0,0,1-1.71,1.8L369,163.6l-3.66,2.11-.43-3.25a5.4,5.4,0,0,1-1.71.17l-2.44,3.55-2.6-1.48,1.85-3.89a5.39,5.39,0,0,1-.71-1.55l-3.05,1.27Zm10.91,2.07a12,12,0,0,0,5.43-9.4c0-3.45-2.46-4.84-5.46-3.11a12,12,0,0,0-5.43,9.4c0,3.45,2.46,4.84,5.46,3.11"/><polygon class="cls-39" points="360.69 145.51 358.74 144.38 356.17 148.84 358.11 149.97 360.69 145.51"/></g><g class="cls-36"><polygon class="cls-37" points="348.56 157.21 347 156.3 347.35 158.9 348.9 159.8 348.56 157.21"/><polygon class="cls-37" points="359.04 142.24 357.49 141.34 355.05 142.35 356.61 143.26 359.04 142.24"/><path class="cls-38" d="M347.25,154.26l-1.55-.91a2.53,2.53,0,0,0,.33.16l.27.07.05,0,.32,0h.44l.37-.06h0l.39-.11h0a3.69,3.69,0,0,0,.42-.17h0a4.51,4.51,0,0,0,.44-.22l.43-.28,0,0q.19-.13.39-.3l.05,0,.37-.32,0,0,.36-.37,0,0c.13-.13.25-.27.37-.41h0a8.19,8.19,0,0,0,.66-.89l.18-.28.14-.23a.75.75,0,0,1,.07-.12c.07-.13.15-.27.21-.4l0,0,.24-.5v0c.07-.16.14-.33.2-.5v0c.07-.18.12-.35.18-.52v0c.05-.17.1-.34.14-.5v0c0-.17.07-.34.1-.51h0a4.43,4.43,0,0,0,.06-.51v0c0-.17,0-.34,0-.51a3.87,3.87,0,0,0,0-.48v0a2.57,2.57,0,0,0-.06-.4v-.05l-.09-.37,0-.06a1.66,1.66,0,0,0-.12-.31v0a1.65,1.65,0,0,0-.18-.32.05.05,0,0,0,0,0l-.17-.22-.07-.08-.16-.15-.07-.06a2,2,0,0,0-.25-.18l1.55.9.26.18.07.06.16.16a.46.46,0,0,0,.07.07c.06.07.11.15.16.22l0,0h0a2.85,2.85,0,0,1,.16.3h0v0l.09.21,0,.1a.25.25,0,0,1,0,.07.14.14,0,0,1,0,.06l.06.22s0,.05,0,.08v0s0,.05,0,.08a.76.76,0,0,1,0,.21s0,.08,0,.12V146c0,.07,0,.13,0,.2v.42a1.48,1.48,0,0,1,0,.21.31.31,0,0,1,0,.1v0a.15.15,0,0,1,0,.07,1.5,1.5,0,0,1,0,.22l0,.22h0c0,.07,0,.14,0,.21s0,.15,0,.22a.31.31,0,0,0,0,.08v.05l0,.1-.06.23a.84.84,0,0,1-.05.17v.06a2,2,0,0,1-.07.23c0,.07,0,.14-.07.22l0,0v0a1.21,1.21,0,0,0-.05.14l-.09.21-.07.16v0l-.09.21-.12.23v0l0,0-.09.18-.13.23-.06.11,0,0c0,.07-.08.13-.11.19l-.18.29,0,0-.28.39-.19.26-.16.2h0l-.16.2-.17.19,0,0,0,0-.12.13-.19.18-.05.05-.05,0-.09.09-.19.16-.09.07,0,0-.06,0-.2.15-.14.1,0,0h0l-.19.12-.18.12,0,0-.14.08-.17.09-.12.06h0l0,0-.17.07-.18.07h-.06l-.11,0-.18,0-.09,0H349l-.19,0-.12,0h-.51l-.25,0h-.06l-.24-.07h0a1.66,1.66,0,0,1-.33-.15Z"/><polygon class="cls-11" points="357.51 138.91 355.96 138 353.88 136.82 355.44 137.73 357.51 138.91"/><polygon class="cls-39" points="344.64 155.89 343.08 154.98 341.6 158.09 343.16 158.99 344.64 155.89"/><polygon class="cls-37" points="355.44 137.73 353.88 136.82 351.93 139.65 353.49 140.56 355.44 137.73"/><path class="cls-40" d="M344.64,155.89h0a5.09,5.09,0,0,1-.32-.56s0,0,0-.06a4.16,4.16,0,0,1-.23-.62l-1.56-.91a3.38,3.38,0,0,0,.11.34l.12.28,0,.06v0a3.09,3.09,0,0,0,.24.44l.06.09,1.56.91Z"/><path class="cls-39" d="M352.88,140.57h-.12l-.22,0-.1,0-.32.07-1.56-.91h0l.27-.06H351l.13,0h.09l.12,0h.61l1.56.91h-.61Z"/><path class="cls-39" d="M344.06,150.51l-1.56-.91v0c0-.12.05-.23.08-.35l.09-.34c0-.06,0-.12.05-.19l0-.05,0-.11c0-.11.07-.22.11-.33s.07-.22.11-.33l.06-.15,1.56.9c-.12.31-.22.61-.31.92l0,.06C344.2,149.9,344.12,150.2,344.06,150.51Z"/><path class="cls-39" d="M347.15,144.21l-1.55-.9.06-.07.24-.29.25-.28.09-.09.05-.05.13-.14.27-.27.27-.25,1.56.91c-.23.21-.46.43-.68.66l0,.05C347.57,143.72,347.36,144,347.15,144.21Z"/><polygon class="cls-39" points="341.62 152.3 340.07 151.39 340.07 154.76 341.63 155.66 341.62 152.3"/><polygon class="cls-37" points="344.06 150.51 342.5 149.6 340.07 151.39 341.62 152.3 344.06 150.51"/><polygon class="cls-39" points="351.77 138.1 350.22 137.19 347.29 138.88 348.85 139.79 351.77 138.1"/><polygon class="cls-37" points="348.85 139.79 347.29 138.88 346.96 141.87 348.52 142.78 348.85 139.79"/><polygon class="cls-40" points="343.13 147.22 341.57 146.31 343.06 147.71 344.62 148.61 343.13 147.22"/><polygon class="cls-37" points="347.15 144.21 345.6 143.31 343.63 142.74 345.19 143.64 347.15 144.21"/><path class="cls-41" d="M341.62,152.3l2.44-1.79a12.41,12.41,0,0,1,.56-1.9l-1.49-1.39,2.06-3.58,2,.57a13.31,13.31,0,0,1,1.37-1.43l.33-3,2.92-1.69.35,2.6a4.41,4.41,0,0,1,1.37-.14l1.95-2.83,2.08,1.18L356,142a4.63,4.63,0,0,1,.57,1.25l2.43-1v3.36l-2.43,1.8a12.3,12.3,0,0,1-.56,1.89l1.49,1.4-2.06,3.57-2-.57a13.29,13.29,0,0,1-1.36,1.44l-.33,3-2.92,1.69-.35-2.6a4.41,4.41,0,0,1-1.37.14l-1.95,2.84L343.16,159l1.48-3.1a4.56,4.56,0,0,1-.57-1.24l-2.44,1Zm8.73,1.65a9.54,9.54,0,0,0,4.34-7.51c0-2.77-2-3.88-4.36-2.49a9.58,9.58,0,0,0-4.35,7.52c0,2.76,2,3.87,4.37,2.48"/><polygon class="cls-39" points="345.19 143.64 343.63 142.74 341.57 146.31 343.13 147.22 345.19 143.64"/></g><path class="cls-42" d="M376.43,171.56a3.3,3.3,0,0,1-1.67,2.9l-12.39,7.14a6.25,6.25,0,0,1-6.27,0l-12.5-7.22a3.22,3.22,0,0,1-1.62-2.72V114h34.45Z"/><path class="cls-9" d="M77,314.09v1.19h0v0h0a3.23,3.23,0,0,0,1.62,2.77l12.5,7.23a6.27,6.27,0,0,0,6.27,0l12.39-7.14a3.3,3.3,0,0,0,1.67-2.95h0v-1.21l-1.17-.47-.82,1.4-11.27-6.52a7.8,7.8,0,0,0-7.79,0L79,315l-.44-.7S77,314.09,77,314.09Z"/><path class="cls-10" d="M78.63,311.1a3.25,3.25,0,0,0,0,5.63L91.12,324a6.27,6.27,0,0,0,6.27,0l12.39-7.13a3.33,3.33,0,0,0,0-5.77l-9.69-5.62a9.6,9.6,0,0,0-9-.35Z"/><path class="cls-43" d="M102,283.57l-1.61-.93h0l0,0h0a3,3,0,0,0-2.94,0L86,289.24a5.77,5.77,0,0,0-2.87,5V307.3A3,3,0,0,0,84.66,310h0l1.63.93.9-.71-.72-1.29,10.31-6a7.12,7.12,0,0,0,3.56-6.17v-12l.75,0S102,283.57,102,283.57Z"/><path class="cls-44" d="M87.71,290.25l11.44-6.6a3,3,0,0,1,4.46,2.57v12.41a7.13,7.13,0,0,1-3.56,6.17l-10.64,6.14a3,3,0,0,1-4.57-2.64V295.22A5.72,5.72,0,0,1,87.71,290.25Z"/><path class="cls-45" d="M94.18,284.49a5.94,5.94,0,0,1-.18-.6c-.82-3.16.16-6.11,2.24-6.72a3.32,3.32,0,0,1,3.18,1,7.56,7.56,0,0,1,2,3.56,7.82,7.82,0,0,1,0,4.13,3.57,3.57,0,0,1-2.25,2.59l-.27.06a3.26,3.26,0,0,1-2.55-.74c-.54-.71.61-2.46,1.52-1.72a1,1,0,0,0,.69.05,1.62,1.62,0,0,0,.92-1.16,5.15,5.15,0,0,0,0-2.64A4.88,4.88,0,0,0,98.2,280a1.55,1.55,0,0,0-1.26-.51l-.09,0c-.95.28-1.36,2-.89,3.8a.74.74,0,0,0,0,.14Z"/><path class="cls-45" d="M86.34,289a5.94,5.94,0,0,1-.18-.6c-.83-3.16.16-6.11,2.23-6.72a3.33,3.33,0,0,1,3.19,1,7.53,7.53,0,0,1,2,3.55,7.85,7.85,0,0,1,0,4.14A3.59,3.59,0,0,1,91.33,293l-.27.06a3.24,3.24,0,0,1-2.55-.74c-.54-.71.61-2.46,1.52-1.72a1,1,0,0,0,.69.05c.55-.16.81-.8.92-1.16a5.15,5.15,0,0,0,0-2.64,4.88,4.88,0,0,0-1.25-2.28A1.55,1.55,0,0,0,89.1,284L89,284c-1,.28-1.36,2-.89,3.8l0,.14Z"/><polygon class="cls-46" points="89.83 295.06 92.07 293.77 92.07 296.36 89.83 297.65 89.83 295.06"/><polygon class="cls-46" points="92.71 293.4 94.96 292.11 94.96 294.69 92.71 295.99 92.71 293.4"/><polygon class="cls-46" points="95.6 291.73 97.84 290.44 97.84 293.03 95.6 294.32 95.6 291.73"/><polygon class="cls-46" points="98.48 290.07 100.72 288.77 100.72 291.37 98.48 292.66 98.48 290.07"/><polygon class="cls-46" points="89.83 298.59 92.07 297.29 92.07 299.88 89.83 301.18 89.83 298.59"/><polygon class="cls-46" points="92.71 296.92 94.96 295.63 94.96 298.22 92.71 299.51 92.71 296.92"/><polygon class="cls-46" points="95.6 295.26 97.84 293.96 97.84 296.55 95.6 297.85 95.6 295.26"/><polygon class="cls-46" points="98.48 293.6 100.72 292.3 100.72 294.89 98.48 296.19 98.48 293.6"/><polygon class="cls-46" points="89.83 302.11 92.07 300.82 92.07 303.41 89.83 304.7 89.83 302.11"/><polygon class="cls-46" points="92.71 300.45 94.96 299.15 94.96 301.74 92.71 303.04 92.71 300.45"/><polygon class="cls-46" points="95.6 298.78 97.84 297.49 97.84 300.08 95.6 301.37 95.6 298.78"/><polygon class="cls-46" points="98.48 297.12 100.72 295.82 100.72 298.42 98.48 299.71 98.48 297.12"/><polygon class="cls-46" points="89.83 305.64 92.07 304.34 92.07 306.93 89.83 308.23 89.83 305.64"/><polygon class="cls-46" points="92.71 303.97 94.96 302.68 94.96 305.27 92.71 306.56 92.71 303.97"/><polygon class="cls-46" points="95.6 302.31 97.84 301.01 97.84 303.6 95.6 304.9 95.6 302.31"/><polygon class="cls-46" points="98.48 300.64 100.72 299.35 100.72 301.94 98.48 303.24 98.48 300.64"/><path class="cls-47" d="M111.45,313.92a3.3,3.3,0,0,1-1.67,2.91L97.39,324a6.27,6.27,0,0,1-6.27,0l-12.5-7.23A3.22,3.22,0,0,1,77,314V256.39h34.45Z"/><path class="cls-9" d="M267.23,274v1.19h0v0h0a3.25,3.25,0,0,0,1.62,2.77l12.5,7.23a6.29,6.29,0,0,0,6.27,0L300,278.07a3.31,3.31,0,0,0,1.67-2.95h0v-1.21l-1.17-.47-.82,1.39-11.27-6.51a7.75,7.75,0,0,0-7.78,0l-11.39,6.56-.45-.69S267.23,274,267.23,274Z"/><path class="cls-10" d="M268.85,271a3.25,3.25,0,0,0,0,5.63l12.49,7.23a6.27,6.27,0,0,0,6.27,0L300,276.69a3.32,3.32,0,0,0,0-5.76l-9.69-5.62a9.6,9.6,0,0,0-9-.35Z"/><path class="cls-48" d="M284.79,273.11a3.42,3.42,0,0,0,3.48-2.94c-.36-1.89,1.14-4.21,1.14-4.21l-9.12.08a7.55,7.55,0,0,1,1,4.18A3.33,3.33,0,0,0,284.79,273.11Z"/><path class="cls-49" d="M284.84,263.11c-2.52,0-4.55,1.32-4.55,2.93s2,2.91,4.57,2.9,4.56-1.32,4.55-2.93S287.36,263.11,284.84,263.11Z"/><path class="cls-41" d="M284.84,271c2.87,0,5.19-1.5,5.18-3.33l.08-6.21-10.38.09-.08,6.15C279.64,269.56,282,271,284.84,271Z"/><ellipse class="cls-50" cx="284.91" cy="261.56" rx="5.19" ry="3.32" transform="translate(-0.72 0.78) rotate(-0.16)"/><path class="cls-51" d="M290.09,262.48v-.05h0Z"/><path class="cls-52" d="M294.37,249.61a9.28,9.28,0,1,0-18.55-.25c0,.08,0,.16,0,.24h0c-.1,8.14,5.52,9.64,5.49,12.08h0a.43.43,0,0,1,0,.05c0,1.18,1.63,2.13,3.63,2.13s3.56-.93,3.6-2.08h0c0-2.45,5.73-3.79,5.84-11.93h0A1.94,1.94,0,0,0,294.37,249.61Z"/><path class="cls-53" d="M282.61,243.54a1,1,0,1,1-1-1A1,1,0,0,1,282.61,243.54Z"/><path class="cls-54" d="M301.67,273.79a3.28,3.28,0,0,1-1.67,2.9l-12.39,7.14a6.27,6.27,0,0,1-6.27,0l-12.49-7.23a3.23,3.23,0,0,1-1.63-2.72V216.26h34.45Z"/><path class="cls-55" d="M300.5,153.73s-6.32,7.51-7.33,9.25.64,12.79.64,14.36c-.55,1-.87.76-.94,2.33s-.16,2,.94,2.38,2.88.61,3.42.14.59-3.33-.34-4.33-.65-1.25-.65-2.13.71-8.54.41-11.2c.37-1.2,8-8.17,8-8.17Z"/><path class="cls-56" d="M299.68,154.26a4.38,4.38,0,0,0,5.19,3.29,39.88,39.88,0,0,0,3.88-2.67,4.13,4.13,0,0,0,.51-5.41c-1.43-1.83-3.29-1.3-4.8.19S299.68,154.26,299.68,154.26Z"/><path class="cls-57" d="M333,202.52c1.1-.21,3.72-.69,4.88-1,1.62-.45,3.61.46,2.87,1.66s-6.11,4.32-7.19,4.94c-3.27,1.44-4.94,1.07-6-.36a2.28,2.28,0,0,1,1-2.17C329.12,205.14,333,202.52,333,202.52Z"/><path class="cls-58" d="M333,201.85c1.1-.21,3.72-.69,4.88-1,1.62-.46,3.61.45,2.87,1.65s-6.11,4.32-7.19,4.95c-3.27,1.43-4.94,1.06-6-.37-.25-.94-.37-2.9.16-3.33A45.69,45.69,0,0,1,333,201.85Z"/><path class="cls-58" d="M283.36,215.39a4.25,4.25,0,0,1,2.08-1.84c.27-.48,2.84,0,4.17,1.53,1.11,1.73-.07,2.76-.4,4.39s-2.22,10.2-4,10.42-1.5-11.57-1.5-11.57Z"/><path class="cls-59" d="M300,179.77s-1.16-.77-2.89,5.57c-1.47,4.48,1.47,15.44,1.47,15.44s-13,11.5-14.41,13.23c1.5,0,5,2.74,5.77,3.84,1.3-.22,9.82-8.13,12.48-10.71a8,8,0,0,0,2.31-4.38L307.51,187v-7.35Z"/><path class="cls-59" d="M302.32,183c-2.17,5.41.6,10.35,8.11,9.4s10.49-2.17,11.9-2.25,5.07,13.66,5.31,14.83,5.95,2.12,5.95,0-3.72-17.37-3.72-19.51-2.52-5.3-6.81-4.42c-3.78.78-10.52.55-13,.63A57.82,57.82,0,0,0,302.32,183Z"/><path class="cls-60" d="M315.69,153.91c-1.31.89-5.28-2.17-4.95-3.88a5.32,5.32,0,0,0-3.46-1.06c-2.69.43-3.1,4.26-3.65,6.33-1.28,4.88-2.53,16.34-3.94,24.15-.34,2.44,5.15,5.51,8.62,6s8.47-2.46,8.6-3.54.3-11.11,1.54-14,2.67-7.84,1.64-9.54A20.73,20.73,0,0,0,315.69,153.91Z"/><path class="cls-55" d="M329.9,166.94c-.82.09-5.72-4.44-7.1-5.78s-3.07-1.06-3.54-.18a3.76,3.76,0,0,0,1.32,5.1c2.12,1.49,6.07,5.34,7.8,5.36s11.75-4.82,12.31-5,1.86.34,2.62-.23,2.38-1.26,2.3-1.84-.49-3.68-1.73-3.5a3,3,0,0,0-1.53.44c-.21-.79-1-.36-1.37.06s-.86.34-1.44,1.11a2,2,0,0,0-.33,1.66S331.65,165.45,329.9,166.94Z"/><path class="cls-55" d="M323.36,139.73c.57,1.93-.38,2.77-.5,4.11-.17,1.19,0,6.25-2.39,6.45a7.89,7.89,0,0,1-2.78-.22l-2,3.84c-.51.85-5.9-.76-5.08-3.41l.61-2.35c-1.16-.75-3.16-3.13-2.58-7.19s5.36-6.57,9.26-6A7.08,7.08,0,0,1,323.36,139.73Z"/><path class="cls-56" d="M325.52,163.2a5.36,5.36,0,0,1-3.26,5.13s-3.9-2.78-4.93-3.72a4.12,4.12,0,0,1-.52-5.4c1.44-1.83,3.3-1.3,4.81.19S325.52,163.2,325.52,163.2Z"/><path class="cls-61" d="M319.85,140.34s2.22,1.55,1.57,2.71c-.56,1-.37,1-1.51,1.5-1.06-.32-2.32.82-1.7,3.27a9.42,9.42,0,0,1-1.31,2.69c-.41.4-2.72.36-3.77-.35-2.57-1.73-1.56-1.41-1.95-1.85a8,8,0,0,1-2.92-7.81c.68-4.75,6.14-6.42,8.33-6.11,2.31-1,5.87-1.66,6.94-.12,0,2.21.45,3.19-.64,4.25C322.35,139,320.92,140.5,319.85,140.34Z"/><path class="cls-57" d="M283.23,215.58c.55-2,4.79.12,4.69,2.53-.14,1.82-1,2-1.49,4.52s-.15,5.83-.78,7.18c-.41.62-1.57-.45-2-1.23-1.3-2.32-1.58-8.47-.76-9.09C283,218.59,283.08,216.6,283.23,215.58Z"/><path class="cls-62" d="M321.29,159.09c0-1.54-1.35-2.7-2.46-3.21-1.27-.58-3.49-1-6,2.32l1,.74c1.48-2,3.13-2.71,4.79-2,.9.37.89.66,1.36,1.38A5.18,5.18,0,0,1,321.29,159.09Z"/><path class="cls-62" d="M319.17,166.07c-1.21,4.87-3.07,6.85-4.41,7.38a3.69,3.69,0,0,1-3.25,0l-.72,1a3.94,3.94,0,0,0,2.26.62,5.93,5.93,0,0,0,2.17-.43c1.53-.6,3.39-2.9,4.76-8Z"/><path class="cls-62" d="M309.39,149.31c-1.75.56-4.1,1.73-5,6l1.21.08c.69-3.39,2.55-5.16,5-5.41A1.14,1.14,0,0,0,309.39,149.31Z"/><path class="cls-61" d="M310.4,175.82c.8-1,5.27-9.6,5-14.73-.19-3.54-9.84-7.72-12.12-6.59s-5.68,12.89-5.87,13.92c-.44,2.38.28,4.11,3,5.78S307.51,179.39,310.4,175.82Z"/><path class="cls-62" d="M307.24,175.41c.48-.37,2.8-4.16,3-5.77s-8.52-6.48-10.85-6.12c-1.56.23-2.91,5.22-3.13,6.16-.39,1.74,2.47,2.69,3.69,3.32S305.43,176.78,307.24,175.41Z"/><path class="cls-55" d="M291.24,316s6.31,7.51,7.32,9.25-.63,12.79-.63,14.35c.55,1,.86.77.94,2.33s.15,2-.94,2.39-2.88.61-3.43.14-.58-3.34.34-4.33.66-1.25.66-2.13-.72-8.54-.41-11.2c-.37-1.2-8-8.17-8-8.17Z"/><path class="cls-56" d="M292.06,316.51a4.38,4.38,0,0,1-5.19,3.29,37.55,37.55,0,0,1-3.88-2.68,4.12,4.12,0,0,1-.52-5.4c1.44-1.83,3.3-1.3,4.81.19S292.06,316.51,292.06,316.51Z"/><path class="cls-57" d="M258.71,364.77c-1.1-.21-3.72-.69-4.88-1-1.62-.45-3.61.46-2.88,1.66s6.12,4.32,7.2,4.94c3.27,1.44,4.94,1.07,6-.36a2.28,2.28,0,0,0-1.05-2.17C262.62,367.39,258.71,364.77,258.71,364.77Z"/><path class="cls-58" d="M258.71,364.1c-1.1-.21-3.72-.69-4.88-1-1.62-.45-3.61.46-2.88,1.66s6.12,4.32,7.2,4.95c3.27,1.43,4.94,1.06,6-.37.25-.94.36-2.9-.16-3.33A45.69,45.69,0,0,0,258.71,364.1Z"/><path class="cls-58" d="M308.38,377.64a4.25,4.25,0,0,0-2.08-1.84c-.28-.49-2.84,0-4.18,1.53-1.11,1.73.08,2.76.4,4.39s2.23,10.2,4,10.42S308,380.57,308,380.57Z"/><path class="cls-59" d="M288,340.93s4.93-.94,6.67,5.4c1.46,4.49-1.48,16.7-1.48,16.7s11.14,11.74,12.53,13.46c-1.49.05-2.32,1.42-3.11,2.51-1.3-.22-10.61-7-13.26-9.61A8,8,0,0,1,287,365l-2.79-15.74v-7.36Z"/><path class="cls-59" d="M289.41,345.27c2.18,5.41-.59,10.35-8.11,9.4s-10.48-2.17-11.89-2.25-5.08,13.66-5.31,14.83-4.39,1.06-4.39-1.07,2.16-16.3,2.16-18.44,2.52-5.31,6.81-4.42c3.78.78,10.52.55,13,.63A57.58,57.58,0,0,1,289.41,345.27Z"/><path class="cls-63" d="M276,316.16c1.32.89,5.29-2.17,5-3.88a5.32,5.32,0,0,1,3.46-1.06c2.68.43,3.1,4.26,3.65,6.33,1.28,4.88.4,17.12,3.93,24.15.35,2.44-4.32,5.13-7.79,5.62s-6.89-2.32-7-3.4c.72-12.95-3.62-12.12-4.86-15s-1.74-6.58-.71-8.28A20.77,20.77,0,0,1,276,316.16Z"/><path class="cls-55" d="M261.84,329.19c.82.09,5.72-4.44,7.1-5.78s3.07-1.06,3.54-.18a3.77,3.77,0,0,1-1.32,5.1c-2.12,1.49-6.08,5.34-7.8,5.36s-11.75-4.82-12.31-5-1.87.33-2.62-.24-2.38-1.25-2.31-1.83.5-3.68,1.74-3.5a3,3,0,0,1,1.53.44c.21-.79,1-.37,1.37.06s.86.34,1.44,1.11a2,2,0,0,1,.32,1.66S260.09,327.7,261.84,329.19Z"/><path class="cls-55" d="M268.37,302c-.56,1.94.38,2.78.51,4.12.17,1.18,0,6.25,2.39,6.44a7.69,7.69,0,0,0,2.77-.21l2,3.84c.51.85,5.91-.76,5.08-3.41l-.6-2.35c1.16-.75,3.15-3.13,2.57-7.19s-5.35-6.57-9.25-6A7.13,7.13,0,0,0,268.37,302Z"/><path class="cls-56" d="M266.22,325.45a5.34,5.34,0,0,0,3.25,5.13s3.91-2.78,4.94-3.72a4.12,4.12,0,0,0,.51-5.4c-1.43-1.83-3.29-1.3-4.8.19Z"/><path class="cls-64" d="M271.89,302.59s-1.39,1.5-.06,4.21c1.06-.32,2.32.82,1.7,3.27a9.42,9.42,0,0,0,1.31,2.69c.4.4,2.72.36,3.77-.35,2.56-1.73,1.56-1.41,1.95-1.85a8,8,0,0,0,2.92-7.81c-.68-4.75-6.16-6.69-8.35-6.38-3.71.06-7.37,3.34-6.28,4.4C269.39,301.29,270.82,302.74,271.89,302.59Z"/><path class="cls-57" d="M308.51,377.83c-.55-2-4.79.12-4.69,2.53.14,1.81,1,2,1.49,4.52s.14,5.83.78,7.18c.41.62,1.57-.45,2-1.23,1.3-2.32,1.58-8.47.76-9.09C308.78,380.84,308.66,378.85,308.51,377.83Z"/><path class="cls-62" d="M270.45,321.34a3.85,3.85,0,0,1,2.46-3.21c1.26-.58,3.49-1,5.95,2.31l-1,.75c-1.47-2-3.12-2.72-4.78-2-.9.37-.89.66-1.37,1.38A5.22,5.22,0,0,0,270.45,321.34Z"/><path class="cls-62" d="M272.57,328.32c1.2,4.87,3.07,6.85,4.41,7.38a3.69,3.69,0,0,0,3.25-.05l.72,1a4.05,4.05,0,0,1-2.27.62,5.92,5.92,0,0,1-2.16-.43c-1.53-.6-3.39-2.9-4.77-8Z"/><path class="cls-62" d="M282.35,311.56c1.75.56,4.1,1.73,5,6l-1.21.08c-.69-3.39-2.55-5.16-5-5.41A1.13,1.13,0,0,1,282.35,311.56Z"/><path class="cls-61" d="M281.33,338.07c-.79-1-5.26-9.6-5-14.73.19-3.54,9.84-7.73,12.11-6.59s5.69,12.89,5.88,13.92c.44,2.38-.28,4.11-3,5.77S284.22,341.64,281.33,338.07Z"/><path class="cls-62" d="M284.5,337.66c-.49-.37-2.81-4.16-3-5.78s8.53-6.47,10.85-6.12c1.57.24,2.92,5.23,3.13,6.17.4,1.74-2.47,2.69-3.69,3.32S286.31,339,284.5,337.66Z"/><path class="cls-65" d="M280,308.58a1.16,1.16,0,0,1-1.26,1.06,1.18,1.18,0,0,1-1.06-1.27,1.16,1.16,0,0,1,2.32.21Z"/><path class="cls-64" d="M279,308.86c.18,2.92,15.82,11.5,15.51,16,2-6.46-5.9-15-12.92-16.34C281,308.11,279.32,307.64,279,308.86Z"/></g></g></svg>