<svg xmlns="http://www.w3.org/2000/svg" viewBox="0 0 21.21 21.21"><defs><style>.cls-1{fill:#3acc6c;}</style></defs><title>linkedin</title><g id="Layer_2" data-name="Layer 2"><g id="Layer_7" data-name="Layer 7"><path class="cls-1" d="M18.1,0h-15A3.11,3.11,0,0,0,0,3.11v15a3.11,3.11,0,0,0,3.11,3.11h15a3.11,3.11,0,0,0,3.11-3.11v-15A3.11,3.11,0,0,0,18.1,0ZM7.5,16.82H5V8.12H7.5Zm0-9.94H5V4.39H7.5Zm8.7,9.94H13.71v-5a1.24,1.24,0,0,0-2.48,0v5H8.74V8.12h2.49v.47a5.41,5.41,0,0,1,1.86-.47,3.25,3.25,0,0,1,3.11,3.3Z"/></g></g></svg>