<svg xmlns="http://www.w3.org/2000/svg" viewBox="0 0 216.78 25.85"><defs><style>.cls-1,.cls-2{fill:#fff;}.cls-2{fill-rule:evenodd;}</style></defs><title>logo</title><g id="Layer_2" data-name="Layer 2"><g id="desktop_-_grid" data-name="desktop - grid"><path class="cls-1" d="M40.59,16.72a2.44,2.44,0,0,0,.76.89,3.15,3.15,0,0,0,1.11.51,5.19,5.19,0,0,0,1.32.16,6,6,0,0,0,1-.08,3.65,3.65,0,0,0,1-.29,2.29,2.29,0,0,0,.77-.61,1.53,1.53,0,0,0,.3-1,1.37,1.37,0,0,0-.4-1,3.37,3.37,0,0,0-1.07-.66,9.88,9.88,0,0,0-1.5-.46c-.55-.13-1.12-.28-1.69-.44a16.37,16.37,0,0,1-1.72-.54A5.83,5.83,0,0,1,39,12.36a3.69,3.69,0,0,1-1.48-3.1A4.16,4.16,0,0,1,38,7.16a4.79,4.79,0,0,1,1.35-1.48,5.81,5.81,0,0,1,1.9-.88,8,8,0,0,1,2.11-.29,10.1,10.1,0,0,1,2.36.27,5.89,5.89,0,0,1,2,.9,4.47,4.47,0,0,1,1.39,1.57,4.76,4.76,0,0,1,.52,2.32H46.31A2.79,2.79,0,0,0,46,8.4a1.94,1.94,0,0,0-.67-.72,2.92,2.92,0,0,0-1-.38,6.15,6.15,0,0,0-1.18-.11,4,4,0,0,0-.83.09,2.22,2.22,0,0,0-.76.31,2,2,0,0,0-.56.55,1.46,1.46,0,0,0-.22.84,1.47,1.47,0,0,0,.17.74,1.58,1.58,0,0,0,.7.53,9.61,9.61,0,0,0,1.43.49l2.38.61c.3.06.7.17,1.23.32a5.76,5.76,0,0,1,1.55.74,4.76,4.76,0,0,1,1.33,1.35,3.91,3.91,0,0,1,.56,2.17,4.78,4.78,0,0,1-.42,2,4.25,4.25,0,0,1-1.24,1.59,5.92,5.92,0,0,1-2.05,1.05,9.66,9.66,0,0,1-2.83.37,9.55,9.55,0,0,1-2.51-.32,6.13,6.13,0,0,1-2.16-1,5,5,0,0,1-1.49-1.73A5.22,5.22,0,0,1,37,15.38H40.3A2.88,2.88,0,0,0,40.59,16.72Z"/><path class="cls-1" d="M57.33,11.26a2.28,2.28,0,0,0-1.26.34,2.88,2.88,0,0,0-.82.88,4,4,0,0,0-.45,1.19A6.34,6.34,0,0,0,54.67,15a6,6,0,0,0,.13,1.25,3.92,3.92,0,0,0,.43,1.16,2.41,2.41,0,0,0,.8.85,2.22,2.22,0,0,0,1.23.33A2.28,2.28,0,0,0,59,17.92a3,3,0,0,0,.76-1.68h3A5.11,5.11,0,0,1,61,19.69a5.7,5.7,0,0,1-3.72,1.19,6.33,6.33,0,0,1-2.34-.43,5.21,5.21,0,0,1-1.81-1.2A5.46,5.46,0,0,1,52,17.41a6.32,6.32,0,0,1-.42-2.34,7.45,7.45,0,0,1,.39-2.45,5.37,5.37,0,0,1,1.13-2,5.23,5.23,0,0,1,1.83-1.29,6.13,6.13,0,0,1,2.46-.46,7.45,7.45,0,0,1,1.95.26A5.29,5.29,0,0,1,61,10a4.15,4.15,0,0,1,1.73,3.24H59.64A2.1,2.1,0,0,0,57.33,11.26Z"/><path class="cls-1" d="M67.65,4.88V10.8h.06a3.62,3.62,0,0,1,1.52-1.44A4.12,4.12,0,0,1,71,8.91a5.24,5.24,0,0,1,2.06.34,3,3,0,0,1,1.27.95A3.65,3.65,0,0,1,75,11.67a8.83,8.83,0,0,1,.19,1.93v7H72.07V14.17a4,4,0,0,0-.44-2.1,1.7,1.7,0,0,0-1.56-.7,2.17,2.17,0,0,0-1.85.76,4.25,4.25,0,0,0-.57,2.5v6H64.52V4.88Z"/><path class="cls-1" d="M77.63,12.44a5.39,5.39,0,0,1,1.19-1.89,5.22,5.22,0,0,1,1.85-1.21,6.44,6.44,0,0,1,2.42-.43,6.53,6.53,0,0,1,2.43.43,5.17,5.17,0,0,1,1.86,1.21,5.39,5.39,0,0,1,1.19,1.89A7,7,0,0,1,89,14.92a6.86,6.86,0,0,1-.42,2.46,5.44,5.44,0,0,1-1.19,1.88,5.15,5.15,0,0,1-1.86,1.2,6.74,6.74,0,0,1-2.43.42,6.64,6.64,0,0,1-2.42-.42,5.19,5.19,0,0,1-1.85-1.2,5.44,5.44,0,0,1-1.19-1.88,7.09,7.09,0,0,1-.41-2.46A7.21,7.21,0,0,1,77.63,12.44Zm2.84,3.81a3.6,3.6,0,0,0,.45,1.16,2.5,2.5,0,0,0,.85.83,2.63,2.63,0,0,0,1.32.31,2.7,2.7,0,0,0,1.33-.31,2.36,2.36,0,0,0,.86-.83,3.6,3.6,0,0,0,.45-1.16,6.59,6.59,0,0,0,.13-1.33,6.72,6.72,0,0,0-.13-1.35,3.43,3.43,0,0,0-.45-1.16,2.53,2.53,0,0,0-.86-.83,2.59,2.59,0,0,0-1.33-.32,2.53,2.53,0,0,0-1.32.32,2.7,2.7,0,0,0-.85.83,3.43,3.43,0,0,0-.45,1.16,6.72,6.72,0,0,0-.13,1.35A6.59,6.59,0,0,0,80.47,16.25Z"/><path class="cls-1" d="M91.08,12.44a5.23,5.23,0,0,1,1.18-1.89,5.31,5.31,0,0,1,1.85-1.21,7.05,7.05,0,0,1,4.85,0,5.17,5.17,0,0,1,1.86,1.21A5.39,5.39,0,0,1,102,12.44a7,7,0,0,1,.42,2.48,6.86,6.86,0,0,1-.42,2.46,5.44,5.44,0,0,1-1.19,1.88A5.15,5.15,0,0,1,99,20.46a7.21,7.21,0,0,1-4.85,0,5.13,5.13,0,0,1-3-3.08,6.86,6.86,0,0,1-.42-2.46A7,7,0,0,1,91.08,12.44Zm2.83,3.81a3.6,3.6,0,0,0,.45,1.16,2.5,2.5,0,0,0,.85.83,2.63,2.63,0,0,0,1.32.31,2.7,2.7,0,0,0,1.33-.31,2.36,2.36,0,0,0,.86-.83,3.6,3.6,0,0,0,.45-1.16,6.59,6.59,0,0,0,.13-1.33,6.72,6.72,0,0,0-.13-1.35,3.43,3.43,0,0,0-.45-1.16,2.53,2.53,0,0,0-.86-.83,2.59,2.59,0,0,0-1.33-.32,2.53,2.53,0,0,0-1.32.32,2.7,2.7,0,0,0-.85.83,3.43,3.43,0,0,0-.45,1.16,7.53,7.53,0,0,0-.13,1.35A7.4,7.4,0,0,0,93.91,16.25Z"/><path class="cls-1" d="M107.66,4.88V20.59h-3.12V4.88Z"/><path class="cls-1" d="M110.22,7.46V4.88h3.12V7.46Zm3.12,1.76V20.59h-3.12V9.22Z"/><path class="cls-1" d="M118.77,9.22V10.8h.07a3.6,3.6,0,0,1,1.54-1.44,4.48,4.48,0,0,1,1.94-.45,5.22,5.22,0,0,1,2.05.34,3,3,0,0,1,1.27.95,3.67,3.67,0,0,1,.65,1.47,9.53,9.53,0,0,1,.18,1.93v7h-3.12V14.17a4,4,0,0,0-.44-2.1,1.68,1.68,0,0,0-1.56-.7,2.18,2.18,0,0,0-1.85.76,4.25,4.25,0,0,0-.57,2.5v6H115.8V9.22Z"/><path class="cls-1" d="M139.6,21.43a4,4,0,0,1-.81,1.64A4.78,4.78,0,0,1,137,24.35a7.55,7.55,0,0,1-3.12.53,7.27,7.27,0,0,1-1.71-.21A5.16,5.16,0,0,1,130.6,24a3.89,3.89,0,0,1-1.19-1.13,3.21,3.21,0,0,1-.54-1.66H132a1.81,1.81,0,0,0,.86,1.22,3.07,3.07,0,0,0,1.47.34,2.26,2.26,0,0,0,1.93-.79,3.1,3.1,0,0,0,.58-2V18.5h0a3.09,3.09,0,0,1-1.44,1.33,4.63,4.63,0,0,1-2,.43,5,5,0,0,1-2.2-.45,4.18,4.18,0,0,1-1.52-1.23,5,5,0,0,1-.87-1.83,8.75,8.75,0,0,1-.27-2.21,6.85,6.85,0,0,1,.32-2.12,5.65,5.65,0,0,1,.93-1.81,4.47,4.47,0,0,1,3.63-1.7,4.39,4.39,0,0,1,2,.42,3.43,3.43,0,0,1,1.42,1.41h0V9.22h3V19.87A8,8,0,0,1,139.6,21.43Zm-4.28-3.79a2.45,2.45,0,0,0,.83-.7,3.13,3.13,0,0,0,.5-1,4.2,4.2,0,0,0,.16-1.18,6.32,6.32,0,0,0-.13-1.33,3.23,3.23,0,0,0-.44-1.11,2.39,2.39,0,0,0-.81-.77,2.61,2.61,0,0,0-1.28-.29,2.26,2.26,0,0,0-1.92,1,3,3,0,0,0-.47,1,5.36,5.36,0,0,0-.14,1.22,6.23,6.23,0,0,0,.12,1.22,3.34,3.34,0,0,0,.42,1.09,2.56,2.56,0,0,0,.78.79,2.26,2.26,0,0,0,1.21.31A2.46,2.46,0,0,0,135.32,17.64Z"/><path class="cls-1" d="M159.64,8a4.37,4.37,0,0,0-1.1-1.2,5.12,5.12,0,0,0-1.43-.74,5.26,5.26,0,0,0-1.64-.25,5.77,5.77,0,0,0-2.69.59A5.29,5.29,0,0,0,151,8a6.75,6.75,0,0,0-1.06,2.21,9.55,9.55,0,0,0,0,5A6.71,6.71,0,0,0,151,17.48a5.26,5.26,0,0,0,1.83,1.57,5.65,5.65,0,0,0,2.69.6,4.86,4.86,0,0,0,2-.4A4.68,4.68,0,0,0,159,18.17a5.45,5.45,0,0,0,1-1.59,7,7,0,0,0,.51-2H162a8.47,8.47,0,0,1-.68,2.62,6.7,6.7,0,0,1-1.36,2,5.86,5.86,0,0,1-2,1.25,7,7,0,0,1-2.52.44,7.43,7.43,0,0,1-3.25-.67,6.91,6.91,0,0,1-2.32-1.79,7.81,7.81,0,0,1-1.38-2.6,10.46,10.46,0,0,1,0-6.2A7.77,7.77,0,0,1,149.9,7a6.71,6.71,0,0,1,2.32-1.81,7.58,7.58,0,0,1,3.25-.67,7.36,7.36,0,0,1,2.19.33,6.39,6.39,0,0,1,1.93,1,5.88,5.88,0,0,1,1.46,1.6,5.41,5.41,0,0,1,.73,2.18h-1.49A5.19,5.19,0,0,0,159.64,8Z"/><path class="cls-1" d="M171.12,9.39a5.06,5.06,0,0,1,1.68,1.3,5.65,5.65,0,0,1,1,1.9,7.9,7.9,0,0,1,0,4.65,5.65,5.65,0,0,1-1,1.9,4.9,4.9,0,0,1-1.68,1.29,5.86,5.86,0,0,1-4.6,0,5.1,5.1,0,0,1-1.68-1.29,5.63,5.63,0,0,1-1-1.9,7.69,7.69,0,0,1,0-4.65,5.63,5.63,0,0,1,1-1.9,5.47,5.47,0,0,1,6.28-1.3Zm-4,1.1a4,4,0,0,0-1.24,1.1,5.18,5.18,0,0,0-.75,1.55,6.43,6.43,0,0,0,0,3.55,5.07,5.07,0,0,0,.75,1.55,4,4,0,0,0,1.24,1.1,3.81,3.81,0,0,0,3.48,0,3.86,3.86,0,0,0,1.24-1.1,5.07,5.07,0,0,0,.75-1.55,6.43,6.43,0,0,0,0-3.55,5.18,5.18,0,0,0-.75-1.55,3.86,3.86,0,0,0-1.24-1.1,3.9,3.9,0,0,0-3.48,0Z"/><path class="cls-1" d="M184.18,20.59v-2h-.05a3.84,3.84,0,0,1-1.59,1.74,4.49,4.49,0,0,1-2.32.61,5,5,0,0,1-1.84-.3,3.06,3.06,0,0,1-1.23-.84,3.33,3.33,0,0,1-.69-1.35,6.57,6.57,0,0,1-.22-1.8V9.24h1.38v7.39a3.65,3.65,0,0,0,.72,2.33,3.54,3.54,0,0,0,3.86.41,3.3,3.3,0,0,0,1.05-1,4.62,4.62,0,0,0,.62-1.47,7.28,7.28,0,0,0,.2-1.68v-6h1.38V20.59Z"/><path class="cls-1" d="M189.44,9.24v2h0a3.25,3.25,0,0,1,1.41-1.66,4.1,4.1,0,0,1,2.22-.63,5.47,5.47,0,0,1,2,.31,3,3,0,0,1,1.29.87,3.22,3.22,0,0,1,.68,1.37,7.83,7.83,0,0,1,.2,1.83v7.3h-1.39V13.51a6.47,6.47,0,0,0-.13-1.36,2.85,2.85,0,0,0-.46-1.08,2.29,2.29,0,0,0-.89-.73,3.24,3.24,0,0,0-1.4-.26,3.46,3.46,0,0,0-1.48.29,3.11,3.11,0,0,0-1.1.82,3.71,3.71,0,0,0-.71,1.23,4.84,4.84,0,0,0-.27,1.55v6.62h-1.39V9.24Z"/><path class="cls-1" d="M206.84,10.8a3,3,0,0,0-2.16-.72,3.5,3.5,0,0,0-1.74.41,4,4,0,0,0-1.24,1.1,5.18,5.18,0,0,0-.75,1.55,6.43,6.43,0,0,0,0,3.55,5.07,5.07,0,0,0,.75,1.55,4,4,0,0,0,1.24,1.1,3.5,3.5,0,0,0,1.74.42,3.08,3.08,0,0,0,1.21-.25,3.13,3.13,0,0,0,1-.67,3.32,3.32,0,0,0,.73-1,3.74,3.74,0,0,0,.35-1.3h1.39a5.23,5.23,0,0,1-1.52,3.22,4.45,4.45,0,0,1-3.17,1.16,5.43,5.43,0,0,1-2.3-.47,5.1,5.1,0,0,1-1.68-1.29,5.63,5.63,0,0,1-1-1.9,7.69,7.69,0,0,1,0-4.65,5.63,5.63,0,0,1,1-1.9,5,5,0,0,1,4-1.78,4.89,4.89,0,0,1,3.09,1,4.09,4.09,0,0,1,1.51,2.92h-1.39A3.85,3.85,0,0,0,206.84,10.8Z"/><path class="cls-1" d="M212.71,4.88V7.11h-1.38V4.88Zm0,4.36V20.59h-1.38V9.24Z"/><path class="cls-1" d="M216.78,4.88V20.59H215.4V4.88Z"/><path class="cls-2" d="M15.86,0,0,8.6l1.5.81V20H3.11V10.28l12.75,6.91L31.72,8.6,15.86,0Zm0,19.25L26.4,13.8v6.71a13.3,13.3,0,0,0-10.54,5.34A13.3,13.3,0,0,0,5.31,20.51V13.8l10.55,5.45Z"/></g></g></svg>