<svg xmlns="http://www.w3.org/2000/svg" xmlns:xlink="http://www.w3.org/1999/xlink" viewBox="0 0 456.2 334.06"><defs><style>.cls-1,.cls-4{fill:#774fe5;}.cls-1,.cls-17{opacity:0.1;}.cls-1,.cls-11,.cls-17,.cls-9{isolation:isolate;}.cls-2{opacity:0.2;}.cls-10,.cls-3{fill:none;stroke:#535461;stroke-miterlimit:10;}.cls-3{stroke-width:2px;}.cls-5{fill:url(#linear-gradient);}.cls-6{fill:#f6f7f9;}.cls-7{fill:url(#linear-gradient-2);}.cls-8{fill:#797c9c;}.cls-9{opacity:0.05;}.cls-11{opacity:0.25;}.cls-12{fill:url(#linear-gradient-3);}.cls-13{fill:#e8eaf1;}.cls-14{fill:#ffb9b9;}.cls-15{fill:#e4e2f3;}.cls-16{fill:#4c4c78;}.cls-18{fill:#b36362;}.cls-19{fill:url(#linear-gradient-4);}.cls-20{fill:#db8b8b;}.cls-21{fill:#474463;}.cls-22{fill:#cbcdda;}.cls-23{fill:#472727;}</style><linearGradient id="linear-gradient" x1="241.69" y1="4207.72" x2="241.69" y2="4416.16" gradientTransform="matrix(1, 0, 0, -1, 0, 4455.86)" gradientUnits="userSpaceOnUse"><stop offset="0" stop-color="gray" stop-opacity="0.25"/><stop offset="0.54" stop-color="gray" stop-opacity="0.12"/><stop offset="1" stop-color="gray" stop-opacity="0.1"/></linearGradient><linearGradient id="linear-gradient-2" x1="519.75" y1="4042.97" x2="519.75" y2="4227.52" gradientTransform="matrix(1, 0, 0, -1, -99.6, 4375.27)" xlink:href="#linear-gradient"/><linearGradient id="linear-gradient-3" x1="361.36" y1="4189.54" x2="361.36" y2="4301.76" xlink:href="#linear-gradient"/><linearGradient id="linear-gradient-4" x1="1913.21" y1="4042.06" x2="1913.21" y2="4220.39" gradientTransform="matrix(1, 0, 0, -1, -1655.6, 4375.27)" xlink:href="#linear-gradient"/></defs><title>section-3</title><g id="Layer_2" data-name="Layer 2"><g id="Layer_13" data-name="Layer 13"><path class="cls-1" d="M16.18,209.74C10.75,210.62,4,213.15,4,219c0,3,2,5.51,3.93,7.69a145.93,145.93,0,0,0,27.73,24.49c4.89,3.32,10.15,6.49,13.4,11.61s4.07,11.64,4.33,17.84a137.26,137.26,0,0,1-5.13,43.52c15.93,3,33.7,5.7,47-3.88,8-5.74,13.33-15.35,22.19-19.33,5.91-2.66,12.61-2.43,19-2.09q45.78,2.42,91.34,9c12.72,1.86,25.68,4,38.26,1.56s25-10.21,29.61-22.89c.71-1.95,1.35-4.13,2.95-5.31s3.34-1,5.1-1L410,284c5.83.2,11.86.37,17.19-2,5.16-2.32,9.14-6.78,13-11.15,8.75-10,18.16-22.25,15.59-35.79-2.06-10.85-11.25-18.43-20.37-23.74s-19.18-9.65-25.89-18.14c-10.19-12.92-9.79-31.41-10.42-48.17a267.79,267.79,0,0,0-5.59-45.14c-2.76-13.06-6.61-26.14-13.8-37.17s-18.19-19.87-30.64-21.49c-16.25-2.11-32.58,8-48.48,3.72-13.43-3.62-22.67-16.47-33.8-25.38C247,3.64,221.08.33,196.56,0c-26-.33-52.68,2.3-75.86,14.51-5.3,2.79-10.5,6.17-14.17,11.11-5.64,7.57-7,17.75-10.69,26.6C81,87.9,32.68,95.58,17,130.85c-5.56,12.51-5.51,27.1-1.45,40.24,4.36,14.14,16.64,21.95,21.51,34.28C31.82,208.74,22.53,208.71,16.18,209.74Z"/><g class="cls-2"><path class="cls-3" d="M400.4,167.71s2.17-28.84,18.47-44.5a43.83,43.83,0,0,0,13-24.46,73.72,73.72,0,0,0,.9-13.44"/><path class="cls-4" d="M443,75.37c-1.2,3.17-10.44,10.23-10.44,10.23S430.33,74.2,431.52,71A6.16,6.16,0,0,1,443,75.37Z"/><path class="cls-4" d="M445.89,96.58c-2.74,2-14.32,2.91-14.32,2.91s4.29-10.81,7-12.82a6.15,6.15,0,1,1,7.3,9.91Z"/><path class="cls-4" d="M434.09,126.52c-3.38.36-13.83-4.72-13.83-4.72s9.16-7.16,12.54-7.52a6.15,6.15,0,1,1,1.29,12.24Z"/><path class="cls-4" d="M420.07,147.17c-3.28.9-14.43-2.32-14.43-2.32s7.81-8.59,11.08-9.53a6.16,6.16,0,1,1,3.35,11.85Z"/><path class="cls-4" d="M419.24,95.53c1.45,3.08,11.2,9.4,11.2,9.4s1.39-11.54-.05-14.62a6.16,6.16,0,0,0-11.15,5.22Z"/><path class="cls-4" d="M403.14,119.89c2.3,2.5,13.5,5.61,13.5,5.61s-2.13-11.43-4.43-13.93a6.15,6.15,0,1,0-9.07,8.32Z"/><path class="cls-4" d="M390.75,145.7c1.84,2.86,12.35,7.81,12.35,7.81s-.16-11.62-2-14.47a6.16,6.16,0,0,0-10.35,6.67Z"/></g><polygon class="cls-5" points="74.21 39.71 74.21 55.97 74.21 248.15 409.17 248.15 409.17 55.97 409.17 39.71 74.21 39.71"/><rect class="cls-6" x="77.75" y="41.91" width="327.88" height="15.92"/><g class="cls-2"><rect class="cls-4" x="77.75" y="41.91" width="327.88" height="15.92"/></g><rect class="cls-6" x="77.75" y="57.83" width="327.88" height="188.12"/><circle class="cls-6" cx="85.62" cy="49.77" r="3.54"/><circle class="cls-6" cx="95.05" cy="49.77" r="3.54"/><circle class="cls-6" cx="104.48" cy="49.77" r="3.54"/><g class="cls-2"><rect class="cls-4" x="89.15" y="81.22" width="168.66" height="12.19"/></g><g class="cls-2"><rect class="cls-4" x="301.05" y="81.22" width="88.45" height="12.19"/></g><g class="cls-2"><rect class="cls-4" x="121.98" y="196.41" width="11.79" height="38.92"/><rect class="cls-4" x="144.78" y="168.5" width="11.79" height="66.83"/><rect class="cls-4" x="167.58" y="140.59" width="11.79" height="94.74"/><rect class="cls-4" x="190.38" y="149.63" width="11.79" height="85.71"/><rect class="cls-4" x="213.19" y="176.36" width="11.79" height="58.97"/></g><g class="cls-2"><rect class="cls-4" x="300.86" y="120.14" width="88.45" height="108.7"/></g><path class="cls-7" d="M451.18,197.49c-.57-2.87-1.65-5.68-1.68-8.61,0-4.76,2.49-10.29-.84-13.8a15.63,15.63,0,0,1-2.34-2.33,5.13,5.13,0,0,1-.59-2.63c-.05-5.55,3-11.19,1.17-16.44a5.54,5.54,0,0,0-2.1-2.93,6,6,0,0,0-3.55-.79c-1.17,0-2.41.13-3.62.15a7.7,7.7,0,0,1-2-.27c-1.4-.4-2.59-1.31-4-1.77a6.64,6.64,0,0,0-2.26-.31c-3-.1-5.82,1.92-8,3.88a28.52,28.52,0,0,1-3.41,2.48c.18-.12-4.22,2.9-2.56,2.93a5.7,5.7,0,0,1,3.27,1.14,8.84,8.84,0,0,0,.45,10.25l-2.33-2.26c-2.42-2.38-5.81-5.58-7.4-6.45a52.89,52.89,0,0,1-6.36-4.46s-4.86,2.71-3.36,6.48a14.26,14.26,0,0,1,2.08.82,4.08,4.08,0,0,0,.29,1.46,15.9,15.9,0,0,1,4.32,2.11,6.42,6.42,0,0,1,.41.65,33.54,33.54,0,0,0,5.12,5.47c1.73,1.74,4,3.81,6.27,5.8a12.32,12.32,0,0,0-1.53,4.07l-.51-.23c-3.36-1.81-11.21-1.62-11.21-1.62a16.39,16.39,0,0,1-7.85-11.16s-1.31-4.68-.94-5.93h0l.17,0,1.56-2.85a1.25,1.25,0,0,0-1-1.84c-7.65-.69-8,6.33-8,6.33h.07l0,.06c.93,4.5,1.68,4.14,1.49,7.74l3,7.91s.19,2.72,5.61,6.3A118.08,118.08,0,0,1,410.53,196s-3.27,1.71-2.06,9.54c1.48,9.56-.75,23.21-.75,23.21v8.82l.42-.12c-.05.3-.1.61-.16.95a49.62,49.62,0,0,0-.26,13.39c1.13,9.36,5.61,22.15,5.61,22.15a40.34,40.34,0,0,1,2.06,8.1,7.49,7.49,0,0,0,.48,2.08,16.34,16.34,0,0,1,1.31,6.24,43.89,43.89,0,0,0,2.88,15.79,42.09,42.09,0,0,1,2.81,9.28c-1.36,1.75-3.11,3.66-4.49,3.85-2.62.36-7.67.72-4.3,5a2.16,2.16,0,0,0,.39.41c-2.56.41-5.37,1.3-2.64,4.81,3.37,4.32,23.18,2.34,23.18,2.34s.12-2.41,0-5l2.26-.18s.56-10.44-1.87-11.7a5.34,5.34,0,0,0-1.31.32c-.26-1.45-.45-3.24-.59-4.57l1-.07v-.07h.06V294.82s-1.12-9.71-5.23-14a8.54,8.54,0,0,1-1.35-1.81l-.06-.11c0-1.23,0-2.89,0-4.8l.06-.1c.07-.12.14-.22.21-.32l.31-.36.06-.08h0s2.26-2.71,9.91-19.79c4.67-10.43,3.43-16.28,1.76-19.29-.35-1.36-1.09-4.4-2-9.6a37.51,37.51,0,0,1-.54-6.69,13.64,13.64,0,0,0,3.54.4,12.1,12.1,0,0,0,5.43-1.16c-1.22-1.78-2.5-3.87-1.88-5.92.69-2.33,3.45-3.4,5-5.28C451.69,203.62,451.74,200.37,451.18,197.49Z"/><path class="cls-8" d="M403.82,157.19s-4.64,2.68-3.21,6.42c0,0,4.82,1.43,6.78,5S424.52,185,424.52,185l11.08-5.53s-3.85-5.14-16-8.73c0,0-7.18-7.68-9.68-9.12A53.56,53.56,0,0,1,403.82,157.19Z"/><path class="cls-9" d="M406.08,159.45s-4.64,2.68-3.21,6.43c0,0,4.82,1.42,6.78,5s17.13,16.42,17.13,16.42l11.08-5.53s-3.85-5.14-16-8.73c0,0-7.18-7.68-9.68-9.12A53.56,53.56,0,0,1,406.08,159.45Z"/><path class="cls-4" d="M7.06,291.1s-26.07,15.73,22,39.95c0,0,10.59-19.66-1.12-35.69a15.78,15.78,0,0,0-20.48-4.49Z"/><path class="cls-10" d="M7.36,290.76S29.67,307.83,29.06,331"/><path class="cls-3" d="M30.31,331.33s-8.17-27.76,1.52-48.15a43.82,43.82,0,0,0,3.54-27.49,73.45,73.45,0,0,0-3.89-12.9"/><path class="cls-4" d="M37.53,229.87c0,3.4-6.15,13.26-6.15,13.26s-6.16-9.86-6.16-13.26a6.16,6.16,0,0,1,12.31,0Z"/><path class="cls-4" d="M47.7,248.72c-1.85,2.85-12.37,7.78-12.37,7.78s.19-11.62,2-14.47a6.15,6.15,0,0,1,10.33,6.69Z"/><path class="cls-4" d="M47.26,280.89c-3,1.54-14.61.46-14.61.46s6-10,9.07-11.47a6.15,6.15,0,0,1,5.54,11h0Z"/><path class="cls-4" d="M41.44,305.16c-2.71,2-14.32,2.94-14.32,2.94s4.27-10.81,7-12.83a6.15,6.15,0,1,1,7.32,9.89Z"/><path class="cls-4" d="M22.41,257.16c2.44,2.37,13.8,4.82,13.8,4.82s-2.78-11.3-5.22-13.65a6.16,6.16,0,0,0-8.59,8.83h0Z"/><path class="cls-4" d="M16,285.63c3,1.53,14.61.45,14.61.45s-6-9.94-9.06-11.46a6.16,6.16,0,1,0-5.55,11Z"/><path class="cls-4" d="M13.5,314.16c2.71,2,14.32,2.94,14.32,2.94s-4.27-10.81-7-12.83a6.15,6.15,0,1,0-7.32,9.89Z"/><path class="cls-11" d="M37.53,229.87c0,3.4-6.15,13.26-6.15,13.26s-6.16-9.86-6.16-13.26a6.16,6.16,0,0,1,12.31,0Z"/><path class="cls-11" d="M47.7,248.72c-1.85,2.85-12.37,7.78-12.37,7.78s.19-11.62,2-14.47a6.15,6.15,0,0,1,10.33,6.69Z"/><path class="cls-11" d="M47.26,280.89c-3,1.54-14.61.46-14.61.46s6-10,9.07-11.47a6.15,6.15,0,0,1,5.54,11h0Z"/><path class="cls-11" d="M41.44,305.16c-2.71,2-14.32,2.94-14.32,2.94s4.27-10.81,7-12.83a6.15,6.15,0,1,1,7.32,9.89Z"/><path class="cls-11" d="M22.41,257.16c2.44,2.37,13.8,4.82,13.8,4.82s-2.78-11.3-5.22-13.65a6.16,6.16,0,0,0-8.59,8.83h0Z"/><path class="cls-11" d="M16,285.63c3,1.53,14.61.45,14.61.45s-6-9.94-9.06-11.46a6.16,6.16,0,1,0-5.55,11Z"/><path class="cls-11" d="M13.5,314.16c2.71,2,14.32,2.94,14.32,2.94s-4.27-10.81-7-12.83a6.15,6.15,0,1,0-7.32,9.89Z"/><path class="cls-3" d="M49.21,331.86S41,304.12,50.75,283.71a43.88,43.88,0,0,0,3.54-27.49,73.45,73.45,0,0,0-3.89-12.9"/><path class="cls-4" d="M56.43,230.42c0,3.4-6.15,13.25-6.15,13.25s-6.15-9.85-6.15-13.25a6.16,6.16,0,1,1,12.31,0Z"/><path class="cls-4" d="M66.61,249.24C64.76,252.1,54.24,257,54.24,257s.19-11.62,2-14.46a6.15,6.15,0,1,1,10.33,6.69Z"/><path class="cls-4" d="M66.16,281.42c-3,1.53-14.6.45-14.6.45s6-9.95,9.06-11.47a6.17,6.17,0,1,1,5.54,11Z"/><path class="cls-4" d="M60.35,305.69c-2.72,2-14.32,2.94-14.32,2.94s4.26-10.81,7-12.83a6.15,6.15,0,0,1,7.32,9.89Z"/><path class="cls-4" d="M41.32,257.68c2.44,2.37,13.8,4.83,13.8,4.83s-2.78-11.3-5.22-13.66a6.16,6.16,0,0,0-8.59,8.83h0Z"/><path class="cls-4" d="M34.87,286.16c3,1.53,14.61.45,14.61.45s-6-9.95-9.07-11.47a6.15,6.15,0,1,0-5.54,11h0Z"/><path class="cls-4" d="M32.4,314.69c2.72,2,14.32,2.94,14.32,2.94s-4.26-10.81-7-12.84a6.16,6.16,0,0,0-7.32,9.9Z"/><rect class="cls-4" x="11.09" y="330.89" width="430.9" height="3.17"/><rect class="cls-12" x="315.7" y="154.1" width="91.32" height="112.22"/><rect class="cls-4" x="317.14" y="155.86" width="88.45" height="108.7"/><rect class="cls-13" x="323.08" y="165.41" width="18.09" height="18.09"/><rect class="cls-13" x="332.12" y="194.34" width="64.21" height="3.62"/><rect class="cls-13" x="332.12" y="202.03" width="64.21" height="3.62"/><rect class="cls-13" x="332.12" y="209.72" width="64.21" height="3.62"/><rect class="cls-13" x="332.12" y="217.4" width="64.21" height="3.62"/><rect class="cls-13" x="332.12" y="225.09" width="64.21" height="3.62"/><rect class="cls-13" x="332.12" y="232.78" width="64.21" height="3.62"/><rect class="cls-13" x="332.12" y="240.46" width="64.21" height="3.62"/><path class="cls-14" d="M432.73,309.4s.53,7.85,1.43,8.75-8,1.43-8,1.43l1.24-10.18Z"/><path class="cls-9" d="M432.73,309.4s.53,7.85,1.43,8.75-8,1.43-8,1.43l1.24-10.18Z"/><path class="cls-15" d="M434.69,315.47s-1.24,0-5.71,2.32c0,0-3-.53-4.28-4.82,0,0-3.75,6.42-6.24,6.78s-7.32.72-4.11,5,22.13,2.32,22.13,2.32S437,316.72,434.69,315.47Z"/><path class="cls-9" d="M434.69,315.47s-1.24,0-5.71,2.32c0,0-3-.53-4.28-4.82,0,0-3.75,6.42-6.24,6.78s-7.32.72-4.11,5,22.13,2.32,22.13,2.32S437,316.72,434.69,315.47Z"/><path class="cls-14" d="M432,321.54l-1.24,3.39-8.21-2.32.45-3.37.11-.81.32-2.26s6.95-1.79,6.95-.9a14.7,14.7,0,0,0,.46,2.17c.28,1.1.64,2.35.9,3.17Z"/><path class="cls-16" d="M427.53,275a4.87,4.87,0,0,0,0,5,8.69,8.69,0,0,0,1.29,1.78c3.92,4.28,5,13.92,5,13.92v15.52l-2.67.2-4.29.33-6.42-26.41s-3.75-19.27-2-22.66S421.86,238,421.86,238l1.48-1.54,3.51-3.64H437a7,7,0,0,1,2,2.21c1.71,2.83,3.24,8.71-1.44,19.56-7.32,16.95-9.46,19.63-9.46,19.63A3.85,3.85,0,0,0,427.53,275Z"/><path class="cls-9" d="M427.59,274.92a4.87,4.87,0,0,0,0,5,8.09,8.09,0,0,0,1.29,1.78c3.92,4.28,5,13.92,5,13.92v15.52l-2.67.2-4.29.33-6.42-26.41s-3.75-19.27-2-22.66S421.92,238,421.92,238l1.48-1.53,3.51-3.64h10.18a6.77,6.77,0,0,1,2,2.21c1.71,2.82,3.24,8.7-1.45,19.55-7.31,17-9.45,19.63-9.45,19.63A4.18,4.18,0,0,0,427.59,274.92Z"/><path class="cls-17" d="M430.87,317.46l-7.73,1,.31-2.26s7-1.79,7-.9A12.73,12.73,0,0,0,430.87,317.46Z"/><path class="cls-16" d="M427,252.12s.45,14.05.51,22.88v5a10.71,10.71,0,0,1-.14,2c-.53,1.6.53,5.17.53,5.17a51.37,51.37,0,0,1,3.21,22.13v7.85l-8.56,1.07s1.43-1.07-2.5-11.42a44.91,44.91,0,0,1-2.75-15.65,16.91,16.91,0,0,0-1.26-6.2,8.07,8.07,0,0,1-.45-2.06,41.19,41.19,0,0,0-2-8s-4.28-12.66-5.36-22a51.27,51.27,0,0,1,.25-13.27,33.57,33.57,0,0,1,.65-3.32s17.44-11,24-3.39a8.65,8.65,0,0,1,1.48,2.5,15.93,15.93,0,0,1,.85,2.78C437.58,248.2,427,252.12,427,252.12Z"/><circle class="cls-14" cx="426.48" cy="164.87" r="9.1"/><path class="cls-14" d="M421.48,170.57s3.75,10.53,0,16.06,12,3.75,12,3.75l6.07-7.31s-7.14,0-7.5-12.5S421.48,170.57,421.48,170.57Z"/><path class="cls-17" d="M439.51,237.13a23.91,23.91,0,0,1-4,1c-2.22.34-4.84.36-6.37-1-.91-.8-3.17-.9-5.84-.64a100.65,100.65,0,0,0-14.8,3.07c.16-1.11.38-2.22.65-3.32,0,0,17.44-11,24-3.39H437a7,7,0,0,1,2,2.21C439.32,236.48,439.51,237.13,439.51,237.13Z"/><path class="cls-17" d="M432,321.54l-1.24,3.39-8.21-2.32.45-3.37a5.8,5.8,0,0,0,3.82,3.55,28.22,28.22,0,0,1,4.91-2.15C431.91,321.18,432,321.54,432,321.54Z"/><path class="cls-15" d="M432.55,320.65s-1.25,0-5.71,2.32c0,0-3-.54-4.29-4.82,0,0-3.74,6.42-6.24,6.78s-7.32.71-4.11,5,22.13,2.32,22.13,2.32S434.87,321.89,432.55,320.65Z"/><path class="cls-14" d="M390.21,166.61s.35-7,7.65-6.27A1.24,1.24,0,0,1,399,161.7a1.37,1.37,0,0,1-.13.45l-1.5,2.81Z"/><path class="cls-8" d="M432.37,185.2s-8.74-1.42-11.06-3.21c0,0-1.79,3.4-5,1.61S405.6,182,405.6,182a16.14,16.14,0,0,1-7.49-11.06s-1.25-4.64-.91-5.88c0,0-4.64-4.82-7,1.61.91,4.46,1.61,4.1,1.43,7.68l2.86,7.85s.17,2.68,5.35,6.25a114.29,114.29,0,0,1,11.06,9.1s-3.12,1.7-2,9.46c1.42,9.49-.71,23-.71,23v8.74s17.84-5.17,20.87-2.5,10.35,0,10.35,0a100.57,100.57,0,0,1-2.14-10.35,45.29,45.29,0,0,1,.18-14.47s4.63-12.31,6.78-17.31-1.61-11.75-5.36-14.27-5.14-1-5.14-1S440.4,183.6,432.37,185.2Z"/><path class="cls-9" d="M409.44,211s1.43-.34,8.56-1.41S437.63,211,437.63,211"/><path class="cls-17" d="M415.61,159c4.07.09,7.08,5.11,5.28,8.73-.8,1.59-2.33,3-2.17,4.76a16.59,16.59,0,0,0,.69,2.32c.85,3.62-3.47,7-2.48,10.57a7.49,7.49,0,0,0,1.54,2.59l7.52,9.47a7.39,7.39,0,0,1,1.12,1.74,7.48,7.48,0,0,1,.32,2.78c0,4.52.26,9.37,2.93,13A12,12,0,0,0,445,218.5c-1.17-1.77-2.38-3.84-1.81-5.88.66-2.31,3.3-3.37,4.82-5.24,1.83-2.26,1.88-5.47,1.35-8.32s-1.58-5.64-1.6-8.55c0-4.71,2.38-10.19-.8-13.67a15.81,15.81,0,0,1-2.24-2.32,5.26,5.26,0,0,1-.56-2.61c-.05-5.5,2.87-11.09,1.12-16.31a5.53,5.53,0,0,0-2-2.9c-2.48-1.67-5.92,0-8.78-.9-1.36-.4-2.48-1.31-3.8-1.76-3.57-1.21-6.88,1.22-9.35,3.54a27.84,27.84,0,0,1-3.26,2.46C418.23,156,414,158.94,415.61,159Z"/><path class="cls-18" d="M416.06,159c4.07.09,7.08,5.11,5.28,8.73-.79,1.59-2.33,3-2.17,4.76a16.59,16.59,0,0,0,.69,2.32c.85,3.62-3.47,7-2.48,10.57a7.65,7.65,0,0,0,1.54,2.59l7.52,9.47a7.39,7.39,0,0,1,1.12,1.74,7.28,7.28,0,0,1,.33,2.78c0,4.52.25,9.37,2.92,13a12,12,0,0,0,14.6,3.53c-1.17-1.77-2.38-3.84-1.81-5.88.67-2.31,3.3-3.37,4.82-5.24,1.83-2.26,1.88-5.47,1.35-8.32s-1.57-5.64-1.6-8.55c0-4.71,2.38-10.19-.8-13.67a16.35,16.35,0,0,1-2.24-2.32,5.37,5.37,0,0,1-.56-2.61c-.05-5.5,2.87-11.09,1.12-16.31a5.53,5.53,0,0,0-2-2.9c-2.48-1.67-5.92,0-8.78-.9-1.36-.4-2.48-1.31-3.8-1.76-3.57-1.21-6.88,1.22-9.35,3.54A27,27,0,0,1,418.5,156C418.68,156,414.48,158.94,416.06,159Z"/><path class="cls-19" d="M279.46,245a15.91,15.91,0,0,1-2.67-3.28,11.85,11.85,0,0,0-6-4.44v-.81h.11l-.05-.74h.05l-.13-2h0l-.63-9.8a15.13,15.13,0,0,1,1.76-12.58c4.07-6,.25-11.79-3.57-14,0,0-1.81-9.53-.25-11.79a69.29,69.29,0,0,0-6.43-3.27q0-.17-.09-.36c0-.9-.1-1.77-.14-2.66a9,9,0,0,1,.25-1.36c.05-.18.1-.37.16-.57a9.78,9.78,0,0,0,6.25-9.07,9.61,9.61,0,0,0-.61-3.36,4.19,4.19,0,0,0,.45-1.07,4.36,4.36,0,0,0-.6-3.13,11.34,11.34,0,0,0-5.43-5.08c-2.65-1.08-6.65-.83-9.41-.5-1.55.19-3.33.71-3.89,2.15a15.1,15.1,0,0,0-.35,1.65c-.58,2.18-3.09,3.21-4.64,4.88a11.6,11.6,0,0,0-2.41,5.43,50,50,0,0,0-.91,17c.16,1.31.37,2.61.59,3.91-.93,1.31-1.77,3.62-1.39,7.69l-3.06,14.54L235.17,221a7.44,7.44,0,0,0,2.29,6.52,57.48,57.48,0,0,1,5.79,7.27,17.19,17.19,0,0,0-.94,5.77c0,.91.08,1.76.15,2.59a23,23,0,0,0,1,5.11c.35,3.5,1.06,8,2.45,10.85l.51,15.29s-.77,14-2.3,16.8,3.32,26.07,3.32,26.07v3.26l-.82,2.39-.2-.15c-3.83,4.76,0,6.52,0,6.52l2.71.11a3.07,3.07,0,0,0,1.63,3.39s21.71,1,25.53,0,2.81-4.52.76-4.26a9.28,9.28,0,0,1-3-.4c1.19-1.4.24-3.29-1.28-3.11-2.05.25-6.64-1.57-6.64-1.57v0a3.81,3.81,0,0,0-.45-.13,49.19,49.19,0,0,1-5.05-1.43c-1-2.11-3.26-7.79-1.63-12.2a21.85,21.85,0,0,0,1-7.21,82.4,82.4,0,0,1,3.36-22.87l3.06-10.52s4.34-12.79,4.59-16.28l0-5.12c3.59,2.31,6.43,1.61,8.26.54a2,2,0,0,0,.73-2.68A1.88,1.88,0,0,0,279.46,245Zm-34.07-26.6a12.08,12.08,0,0,0,.22-1.19h1.81a9.35,9.35,0,0,1,.91,4.94C246.94,221.73,244.87,220.66,245.39,218.44Z"/><path class="cls-20" d="M247.82,319.33l-1,2.95,3.19,3.19,10.56,2.46,7.62-.74-.49-2.71h0a3.27,3.27,0,0,0-2.42-2.38c-3.13-.74-9.1-2.41-10.36-4.75Z"/><path class="cls-17" d="M247.82,319.33l-1,2.95,3.19,3.19,10.56,2.46,7.62-.74-.49-2.71h0a3.27,3.27,0,0,0-2.42-2.38c-3.13-.74-9.1-2.41-10.36-4.75Z"/><path class="cls-21" d="M265.75,326.46l-1.47-2,1.47-2.26s4.43,1.79,6.39,1.54,2.95,3.19-.74,4.17-24.56,0-24.56,0-3.69-1.71,0-6.38L250,324s5.42,2.94,8.1,2.45Z"/><path class="cls-20" d="M272.37,330.63l-7.61.74-10.55-2.48-3.2-3.16.27-.78.36-1.1.36-1.07,7.12-2a4.43,4.43,0,0,0,1.44,1.45c2.32,1.58,6.47,2.71,8.91,3.3l.3.09a3.24,3.24,0,0,1,2.12,2.29Z"/><path class="cls-17" d="M272.37,330.63l-7.61.74-10.55-2.48-3.2-3.16.27-.78,2.93,2.26s5.43,3,8.11,2.45h7.61l-1.47-2,1.32-2.05a3.26,3.26,0,0,1,2.12,2.29Z"/><path class="cls-21" d="M269.93,329.89l-1.48-2,1.48-2.26s4.42,1.78,6.38,1.53,2.95,3.19-.74,4.18-24.56,0-24.56,0-3.69-1.72,0-6.38l3.19,2.45s5.43,2.95,8.11,2.46Z"/><path class="cls-20" d="M263.78,187.42s-11.79,1.23-10.07-3.68a8.76,8.76,0,0,0,.36-4.34,11.84,11.84,0,0,0-2.08-5L263,176.13a13.7,13.7,0,0,0-1.49,3.55C260.23,184.89,263.78,187.42,263.78,187.42Z"/><path class="cls-21" d="M243.64,243.44s.25,10.56,2.72,15.72l.49,15s-.74,13.76-2.21,16.46,3.19,25.55,3.19,25.55v3.93s7.85,2.94,10.07-.5l-2.21-29.23,1-40.53Z"/><path class="cls-17" d="M243.64,243.44s.25,10.56,2.72,15.72l.49,15s-.74,13.76-2.21,16.46,3.19,25.55,3.19,25.55v3.93s7.85,2.94,10.07-.5l-2.21-29.23,1-40.53Z"/><path class="cls-22" d="M238.73,209.53l-1.47,3.93L236,221.81a7.38,7.38,0,0,0,2.21,6.38,70.28,70.28,0,0,1,6.88,9.09l4.66-14s-4.66-.73-3.93-3.93.5-9.09.5-9.09Z"/><path class="cls-9" d="M238.73,209.07,237.26,213,236,221.35a7.4,7.4,0,0,0,2.21,6.39,70.28,70.28,0,0,1,6.88,9.09l4.66-14s-4.66-.74-3.93-3.93.5-9.09.5-9.09Z"/><path class="cls-17" d="M260.56,322.25c-3.16,5-8.05,2.15-8.92,1.59l.35-1.07,7.13-2A4.34,4.34,0,0,0,260.56,322.25Z"/><path class="cls-21" d="M270.42,253c-.24,3.44-4.42,16-4.42,16l-2.95,10.31a81.85,81.85,0,0,0-3.23,22.43,21.84,21.84,0,0,1-.94,7.06c-2,5.42,2,12.77,2,12.77-3.44,6.14-9.33,2-9.33,2v-3.93s-4.67-21.37-3.44-25.55,1.72-15.47,1.72-15.47V258.17a23.1,23.1,0,0,1-6.74-14.67c-.06-.8-.11-1.65-.14-2.53-.2-5.54,3.59-12,5.07-14.35.36-.56.58-.88.58-.88l21.7,8.6h.05V237Z"/><path class="cls-17" d="M263.05,176.13a13.73,13.73,0,0,0-1.5,3.55,9.59,9.59,0,0,1-7.47-.28,12,12,0,0,0-2.09-5Z"/><circle class="cls-20" cx="258.13" cy="170.23" r="9.58"/><path class="cls-17" d="M270.42,237h-.1c-10.3,2.12-23.24-8.61-23.24-8.61a12.77,12.77,0,0,0,.91-1.81c.36-.56.58-.88.58-.88l21.7,8.6.05.85Z"/><path class="cls-22" d="M267.72,187.18s-13.76-8.35-18.18-4.92l-6.14,7.86s-3.93,1.23-3.19,9.09l-3,14.25,8.84,2.21s5.16,4.91,1,12c0,0,13,10.81,23.34,8.59l-.76-11.53a15,15,0,0,1,1.72-12.28c3.93-5.9.24-11.54-3.44-13.76C268,198.72,266.24,189.39,267.72,187.18Z"/><path class="cls-20" d="M268.45,237.29s5.16,1,7.62,4.91a15.3,15.3,0,0,0,2.57,3.21,2,2,0,0,1,.13,2.76,2.44,2.44,0,0,1-.43.35c-1.95,1.17-5.13,1.89-9.15-1.41C262.31,241.47,268.45,237.29,268.45,237.29Z"/><path class="cls-17" d="M260.84,191.85s-4.92-.5-6.14,12.28-3.19,15.72-3.19,15.72-1.23,6.63,1.71,10.56,8.59,12.28,8.59,12.28,6.15,1.72,7.38-4.42L261.57,224s-1.23-4.91,1.72-8.35S268.45,189.39,260.84,191.85Z"/><path class="cls-22" d="M261.33,191.11s-4.91-.49-6.14,12.28S252,219.11,252,219.11s-1.23,6.63,1.72,10.56S262.31,242,262.31,242s6.14,1.72,7.37-4.42l-7.62-14.25s-1.22-4.91,1.72-8.33S269,188.65,261.33,191.11Z"/><path class="cls-17" d="M265.38,200.32s.5,7.61-1.72,11.79-2.21,9.58,0,12.53"/><path class="cls-17" d="M266.61,191s-2-2-7.61-2.21-8.11-2-8.11-2"/><path class="cls-17" d="M252.93,157.85c-1.49.19-3.2.7-3.73,2.1a12.59,12.59,0,0,0-.34,1.62c-.56,2.14-3,3.16-4.47,4.78a11.48,11.48,0,0,0-2.32,5.32,49.79,49.79,0,0,0-.86,16.69c.48,4.07,1.46,8.08,1.73,12.17s-.23,8.4-2.47,11.84a28.89,28.89,0,0,0-2.91,4.4c1.41,1.14,3.35,1.31,5.17,1.36q3.17.1,6.33,0a6.78,6.78,0,0,0,3.22-.67,5,5,0,0,0,1.69-1.81,13,13,0,0,0,1.47-6.9c-.06-2.37-.43-4.74-.46-7.12a6.24,6.24,0,0,1,.83-3.74,11.59,11.59,0,0,1,2.05-1.9c2.63-2.33,3.53-6.07,3.62-9.58s-.49-7-.19-10.53c.11-1.36.62-3,2-3.29a7.11,7.11,0,0,0,1.29-.16c1.08-.41,1-1.94,1.28-3.05s1.42-2.23,1.72-3.49c.7-3-3.08-6.52-5.55-7.56S255.61,157.53,252.93,157.85Z"/><path class="cls-23" d="M252.7,157.36c-1.49.18-3.19.69-3.73,2.09a15.56,15.56,0,0,0-.34,1.62c-.56,2.15-3,3.17-4.46,4.79a11.35,11.35,0,0,0-2.33,5.31,50.08,50.08,0,0,0-.86,16.69c.48,4.07,1.46,8.09,1.73,12.18s-.22,8.4-2.46,11.83a28.72,28.72,0,0,0-2.91,4.41c1.41,1.14,3.35,1.3,5.16,1.35q3.17.12,6.33,0a6.73,6.73,0,0,0,3.23-.67,5,5,0,0,0,1.69-1.8,13,13,0,0,0,1.46-6.9c-.06-2.37-.43-4.74-.45-7.13a6.14,6.14,0,0,1,.82-3.73,12,12,0,0,1,2.06-1.9c2.63-2.33,3.53-6.07,3.61-9.59s-.49-7-.19-10.53c.12-1.35.63-3,2-3.28a7.86,7.86,0,0,0,1.28-.16c1.08-.42,1-1.94,1.28-3.06s1.42-2.22,1.72-3.48c.71-3-3.07-6.52-5.55-7.56S255.36,157,252.7,157.36Z"/></g></g></svg>