<svg xmlns="http://www.w3.org/2000/svg" xmlns:xlink="http://www.w3.org/1999/xlink" viewBox="0 0 456.49 341.45"><defs><style>.cls-1,.cls-4,.cls-6,.cls-7{fill:#723edf;}.cls-1,.cls-22,.cls-9{opacity:0.1;}.cls-1,.cls-11,.cls-3,.cls-4,.cls-5,.cls-6,.cls-9{isolation:isolate;}.cls-2{fill:#e8e9ed;}.cls-3,.cls-5{fill:#3acc6c;}.cls-14,.cls-3,.cls-4{opacity:0.5;}.cls-13,.cls-5,.cls-6{opacity:0.8;}.cls-8{fill:#f3f5f7;}.cls-10{fill:none;stroke:#535461;stroke-miterlimit:10;stroke-width:2px;}.cls-11{opacity:0.25;}.cls-12{fill:#774fe5;}.cls-15{fill:#fff;}.cls-16{fill:#ffd037;}.cls-17{fill:#65617d;}.cls-18{fill:#9d9cb5;}.cls-19{fill:url(#linear-gradient);}.cls-20{fill:url(#linear-gradient-2);}.cls-21{fill:url(#linear-gradient-3);}.cls-23{fill:url(#linear-gradient-4);}.cls-24{fill:url(#linear-gradient-5);}.cls-25{fill:url(#linear-gradient-6);}.cls-26{fill:url(#linear-gradient-7);}.cls-27{fill:url(#linear-gradient-8);}.cls-28{fill:url(#linear-gradient-9);}.cls-29{fill:url(#linear-gradient-10);}.cls-30{fill:url(#linear-gradient-11);}.cls-31{fill:url(#linear-gradient-12);}.cls-32{fill:url(#linear-gradient-13);}.cls-33{fill:url(#linear-gradient-14);}.cls-34{fill:url(#linear-gradient-15);}.cls-35{fill:url(#linear-gradient-16);}.cls-36{fill:url(#linear-gradient-17);}.cls-37{fill:url(#linear-gradient-18);}.cls-38{fill:url(#linear-gradient-19);}.cls-39{fill:url(#linear-gradient-20);}.cls-40{fill:url(#linear-gradient-21);}.cls-41{fill:url(#linear-gradient-22);}.cls-42{fill:url(#linear-gradient-23);}.cls-43{fill:url(#linear-gradient-24);}.cls-44{fill:url(#linear-gradient-25);}.cls-45{fill:url(#linear-gradient-26);}.cls-46{fill:url(#linear-gradient-27);}.cls-47{fill:url(#linear-gradient-28);}.cls-48{fill:url(#linear-gradient-29);}.cls-49{fill:url(#linear-gradient-30);}.cls-50{fill:url(#linear-gradient-31);}.cls-51{fill:url(#linear-gradient-32);}.cls-52{fill:url(#linear-gradient-33);}.cls-53{fill:url(#linear-gradient-34);}.cls-54{fill:url(#linear-gradient-35);}.cls-55{fill:#efb7b9;}.cls-56{fill:#51476b;}.cls-57{fill:#444053;}.cls-58{fill:#e3787d;}</style><linearGradient id="linear-gradient" x1="315.89" y1="6159.45" x2="315.89" y2="6197.6" gradientTransform="matrix(1, 0, 0, -1, -69, 6363.65)" gradientUnits="userSpaceOnUse"><stop offset="0" stop-color="gray" stop-opacity="0.25"/><stop offset="0.54" stop-color="gray" stop-opacity="0.12"/><stop offset="1" stop-color="gray" stop-opacity="0.1"/></linearGradient><linearGradient id="linear-gradient-2" x1="297.86" y1="6022.48" x2="297.86" y2="6031.59" xlink:href="#linear-gradient"/><linearGradient id="linear-gradient-3" x1="283.18" y1="6024.3" x2="283.18" y2="6033.41" xlink:href="#linear-gradient"/><linearGradient id="linear-gradient-4" x1="280.58" y1="6026.96" x2="280.58" y2="6030.47" xlink:href="#linear-gradient"/><linearGradient id="linear-gradient-5" x1="296.34" y1="6027.27" x2="296.34" y2="6030.92" xlink:href="#linear-gradient"/><linearGradient id="linear-gradient-6" x1="290.65" y1="6027.4" x2="290.65" y2="6119.6" xlink:href="#linear-gradient"/><linearGradient id="linear-gradient-7" x1="297.03" y1="6073.05" x2="297.03" y2="6073.29" xlink:href="#linear-gradient"/><linearGradient id="linear-gradient-8" x1="297.29" y1="6070.46" x2="297.29" y2="6071.02" xlink:href="#linear-gradient"/><linearGradient id="linear-gradient-9" x1="281.03" y1="6071" x2="281.03" y2="6071.95" xlink:href="#linear-gradient"/><linearGradient id="linear-gradient-10" x1="272.51" y1="6115.8" x2="272.51" y2="6137.48" xlink:href="#linear-gradient"/><linearGradient id="linear-gradient-11" x1="224.48" y1="6227.26" x2="224.48" y2="6245.23" gradientTransform="matrix(1, 0, 0, -1, 0, 6416.47)" xlink:href="#linear-gradient"/><linearGradient id="linear-gradient-12" x1="291.71" y1="6165.68" x2="291.71" y2="6179.53" xlink:href="#linear-gradient"/><linearGradient id="linear-gradient-13" x1="290.8" y1="6113.21" x2="290.8" y2="6119.64" xlink:href="#linear-gradient"/><linearGradient id="linear-gradient-14" x1="289.88" y1="6113.9" x2="289.88" y2="6172.83" xlink:href="#linear-gradient"/><linearGradient id="linear-gradient-15" x1="271.59" y1="6135.88" x2="271.59" y2="6157.36" xlink:href="#linear-gradient"/><linearGradient id="linear-gradient-16" x1="271.58" y1="6135.88" x2="271.58" y2="6140.41" xlink:href="#linear-gradient"/><linearGradient id="linear-gradient-17" x1="289.17" y1="6136.01" x2="289.17" y2="6140.98" xlink:href="#linear-gradient"/><linearGradient id="linear-gradient-18" x1="301.45" y1="6125.45" x2="301.45" y2="6133.2" xlink:href="#linear-gradient"/><linearGradient id="linear-gradient-19" x1="283.45" y1="6125" x2="283.45" y2="6126.1" xlink:href="#linear-gradient"/><linearGradient id="linear-gradient-20" x1="299.34" y1="6153.52" x2="299.34" y2="6160.74" xlink:href="#linear-gradient"/><linearGradient id="linear-gradient-21" x1="273.36" y1="6160.63" x2="273.36" y2="6165.45" xlink:href="#linear-gradient"/><linearGradient id="linear-gradient-22" x1="270.94" y1="6143.86" x2="270.94" y2="6146.7" xlink:href="#linear-gradient"/><linearGradient id="linear-gradient-23" x1="271.03" y1="6148.84" x2="271.03" y2="6151.13" xlink:href="#linear-gradient"/><linearGradient id="linear-gradient-24" x1="298.62" y1="6104.39" x2="298.62" y2="6105.88" xlink:href="#linear-gradient"/><linearGradient id="linear-gradient-25" x1="282.44" y1="6103.9" x2="282.44" y2="6105.14" xlink:href="#linear-gradient"/><linearGradient id="linear-gradient-26" x1="296.91" y1="6101.3" x2="296.91" y2="6101.44" xlink:href="#linear-gradient"/><linearGradient id="linear-gradient-27" x1="279.47" y1="6097.62" x2="279.47" y2="6099.62" xlink:href="#linear-gradient"/><linearGradient id="linear-gradient-28" x1="289.55" y1="6135.07" x2="289.55" y2="6199.67" xlink:href="#linear-gradient"/><linearGradient id="linear-gradient-29" x1="272.74" y1="6170.66" x2="272.74" y2="6181.06" xlink:href="#linear-gradient"/><linearGradient id="linear-gradient-30" x1="274.54" y1="6144.6" x2="274.54" y2="6156.57" xlink:href="#linear-gradient"/><linearGradient id="linear-gradient-31" x1="289.08" y1="6134.97" x2="289.08" y2="6147.81" xlink:href="#linear-gradient"/><linearGradient id="linear-gradient-32" x1="305.16" y1="6178.23" x2="305.16" y2="6187.62" xlink:href="#linear-gradient"/><linearGradient id="linear-gradient-33" x1="302.75" y1="6156.71" x2="302.75" y2="6167.23" xlink:href="#linear-gradient"/><linearGradient id="linear-gradient-34" x1="313.95" y1="6157.98" x2="313.95" y2="6168.05" xlink:href="#linear-gradient"/><linearGradient id="linear-gradient-35" x1="317.67" y1="6158.08" x2="317.67" y2="6167.82" xlink:href="#linear-gradient"/></defs><title>section-1</title><g id="Layer_2" data-name="Layer 2"><g id="Layer_13" data-name="Layer 13"><path class="cls-1" d="M260.43,47.88c-27.82-1-54.32-9.94-79.62-19.77S130.45,7.38,103.3,2.2C85.84-1.16,65.86-1.63,51.79,7.74c-13.53,9-17.92,24.58-20.27,39-1.77,10.86-2.81,22.29,2,32.46,3.37,7,9.34,13,13.48,19.74,14.38,23.53,4.21,52.53-11.37,75.5C28.36,185.2,19.87,195.49,14.23,207S6,231.56,10.91,243.26s16.56,20.3,29.19,26.43c25.66,12.44,55.88,16,85.37,18,65.26,4.46,130.87,2.53,196.31.59,24.21-.71,48.53-1.44,72.36-5.18,13.23-2.08,26.88-5.38,36.49-13.35,12.19-10.12,15.21-27.24,7-39.93-13.7-21.27-51.58-26.55-61.17-49.38-5.27-12.57.14-26.56,7.8-38.22,16.44-25,44-46.94,45.44-75.51,1-19.63-12.25-39.28-32.72-48.57-21.47-9.74-51.23-8.51-67.06,7.6C313.65,42.35,285,48.74,260.43,47.88Z"/><rect class="cls-2" y="53.08" width="111.55" height="111.55"/><rect class="cls-2" x="344.94" y="53.08" width="111.55" height="111.55"/><path class="cls-3" d="M62.49,13.77l-1.11-1.14a.23.23,0,0,0-.17-.08.23.23,0,0,0-.18.08l-7.7,7.74-2.8-2.8a.23.23,0,0,0-.34,0h0l-1.12,1.12a.24.24,0,0,0,0,.35h0l3.53,3.53a1.09,1.09,0,0,0,.74.36,1.12,1.12,0,0,0,.73-.35h0l8.44-8.46a.27.27,0,0,0,0-.36Z"/><path class="cls-4" d="M55.77,6.4a11.34,11.34,0,1,1-8,3.32,11.34,11.34,0,0,1,8-3.32m0-1.77A13.13,13.13,0,1,0,68.9,17.75h0A13.11,13.11,0,0,0,55.78,4.63Z"/><path class="cls-5" d="M148.65,50.45,147.25,49a.27.27,0,0,0-.22-.09.28.28,0,0,0-.23.09l-9.68,9.76-3.53-3.53a.31.31,0,0,0-.44,0l-1.42,1.42a.3.3,0,0,0,0,.43v0l4.45,4.43a1.39,1.39,0,0,0,.93.46,1.55,1.55,0,0,0,.92-.43h0l10.61-10.68a.32.32,0,0,0,0-.43Z"/><path class="cls-6" d="M140.18,41.16a14.31,14.31,0,1,1-10.11,4.19,14.29,14.29,0,0,1,10.11-4.19m0-2.22A16.52,16.52,0,1,0,156.7,55.46h0a16.52,16.52,0,0,0-16.51-16.52Z"/><path class="cls-4" d="M400.72,6.4a11.35,11.35,0,1,1-8,3.32,11.33,11.33,0,0,1,8-3.32m0-1.77a13.13,13.13,0,1,0,13.12,13.12h0A13.11,13.11,0,0,0,400.73,4.63Z"/><path class="cls-6" d="M315.71,41.16a14.31,14.31,0,1,1-10.09,4.19,14.29,14.29,0,0,1,10.09-4.19m0-2.22a16.52,16.52,0,1,0,16.52,16.52h0a16.52,16.52,0,0,0-16.51-16.52h0Z"/><path class="cls-7" d="M227.53,67.37a18.9,18.9,0,1,1-13.37,5.54,18.88,18.88,0,0,1,13.37-5.54m0-2.94a21.84,21.84,0,1,0,21.84,21.84h0a21.84,21.84,0,0,0-21.83-21.84Z"/><rect class="cls-8" x="78.03" y="82.31" width="124.31" height="124.31"/><rect class="cls-8" x="253.55" y="82.31" width="124.31" height="124.31"/><rect class="cls-9" x="11.15" y="72.88" width="41.46" height="4.61"/><rect class="cls-9" x="365.02" y="72.88" width="41.46" height="4.61"/><path class="cls-10" d="M301.4,265.82s10.77-19.08,27-24.58a33.23,33.23,0,0,0,16.81-12.58,56.42,56.42,0,0,0,5-8.93"/><path class="cls-7" d="M360.37,216.21c-1.85,1.8-10.46,3.65-10.46,3.65s2.12-8.55,4-10.34a4.66,4.66,0,0,1,6.49,6.69Z"/><path class="cls-7" d="M355.5,231.68c-2.53.5-10.74-2.62-10.74-2.62s6.41-6,8.94-6.53a4.66,4.66,0,0,1,1.81,9.15Z"/><path class="cls-7" d="M337.77,248.42c-2.43-.86-8-7.69-8-7.69s8.59-2,11-1.12a4.66,4.66,0,1,1-3.05,8.81Z"/><path class="cls-7" d="M321.52,258.06c-2.54-.43-9.15-6.23-9.15-6.23s8.13-3.39,10.67-3a4.67,4.67,0,0,1-1.43,9.22Z"/><path class="cls-7" d="M337.56,222.38c0,2.58,4.66,10.05,4.66,10.05s4.66-7.47,4.66-10a4.66,4.66,0,1,0-9.32,0Z"/><path class="cls-7" d="M318.68,233.91c.77,2.46,7.45,8.19,7.45,8.19s2.22-8.52,1.45-11a4.66,4.66,0,1,0-8.9,2.78Z"/><path class="cls-7" d="M301.87,247.62c.34,2.55,5.95,9.33,5.95,9.33s3.63-8,3.29-10.57a4.66,4.66,0,1,0-9.24,1.24Z"/><path class="cls-11" d="M360.37,216.21c-1.85,1.8-10.46,3.65-10.46,3.65s2.12-8.55,4-10.34a4.66,4.66,0,0,1,6.49,6.69Z"/><path class="cls-11" d="M355.5,231.68c-2.53.5-10.74-2.62-10.74-2.62s6.41-6,8.94-6.53a4.66,4.66,0,0,1,1.81,9.15Z"/><path class="cls-11" d="M337.77,248.42c-2.43-.86-8-7.69-8-7.69s8.59-2,11-1.12a4.66,4.66,0,1,1-3.05,8.81Z"/><path class="cls-11" d="M321.52,258.06c-2.54-.43-9.15-6.23-9.15-6.23s8.13-3.39,10.67-3a4.67,4.67,0,0,1-1.43,9.22Z"/><path class="cls-11" d="M337.56,222.38c0,2.58,4.66,10.05,4.66,10.05s4.66-7.47,4.66-10a4.66,4.66,0,1,0-9.32,0Z"/><path class="cls-11" d="M318.68,233.91c.77,2.46,7.45,8.19,7.45,8.19s2.22-8.52,1.45-11a4.66,4.66,0,1,0-8.9,2.78Z"/><path class="cls-11" d="M301.87,247.62c.34,2.55,5.95,9.33,5.95,9.33s3.63-8,3.29-10.57a4.66,4.66,0,1,0-9.24,1.24Z"/><path class="cls-10" d="M302,265.44s2.12-21.81,14.72-33.41A33.22,33.22,0,0,0,327,213.71a56,56,0,0,0,.91-10.17"/><path class="cls-12" d="M335.83,196.19c-1,2.39-8.08,7.58-8.08,7.58s-1.53-8.67-.57-11.06a4.66,4.66,0,1,1,8.65,3.48Z"/><path class="cls-12" d="M337.65,212.31c-2.11,1.48-10.9,2-10.9,2s3.44-8.12,5.53-9.6a4.67,4.67,0,0,1,5.37,7.63Z"/><path class="cls-12" d="M328.22,234.8c-2.58.21-10.4-3.81-10.4-3.81s7.05-5.27,9.62-5.49a4.66,4.66,0,0,1,.95,9.28Z"/><path class="cls-12" d="M317.26,250.21c-2.5.64-10.9-2-10.9-2s6.06-6.39,8.56-7a4.66,4.66,0,0,1,2.34,9Z"/><path class="cls-12" d="M317.48,211.08c1,2.35,8.33,7.31,8.33,7.31s1.24-8.72.2-11.08a4.67,4.67,0,0,0-8.53,3.78Z"/><path class="cls-12" d="M304.88,229.26c1.72,1.93,10.14,4.47,10.14,4.47s-1.43-8.69-3.13-10.62a4.66,4.66,0,1,0-7,6.15Z"/><path class="cls-7" d="M295.07,248.61c1.35,2.2,9.23,6.12,9.23,6.12s.07-8.8-1.29-11a4.66,4.66,0,0,0-7.95,4.88Z"/><rect class="cls-9" x="94.07" y="108.85" width="41.46" height="4.61"/><rect class="cls-9" x="170.48" y="149.35" width="24.75" height="4.61"/><rect class="cls-9" x="170.48" y="180.28" width="36.66" height="4.61"/><rect class="cls-9" x="94.07" y="125.09" width="41.46" height="4.61"/><rect class="cls-9" x="280.65" y="108.85" width="41.46" height="4.61"/><rect class="cls-9" x="280.65" y="125.09" width="41.46" height="4.61"/><path class="cls-7" d="M221.65,92.7l1.16-1.53A6,6,0,0,0,227,92.89c2,0,3.41-1,3.41-2.51s-1.39-2.79-5.25-2.79V85.84c3.44,0,4.73-1.13,4.73-2.62S228.72,81,227,81a5.6,5.6,0,0,0-3.6,1.47L222.18,81a7.54,7.54,0,0,1,4.92-1.91c3,0,5.16,1.43,5.16,3.93,0,1.76-1.29,2.92-3.15,3.55v.1c2,.43,3.66,1.75,3.66,3.8,0,2.72-2.58,4.35-5.62,4.35A7.47,7.47,0,0,1,221.65,92.7Z"/><g class="cls-13"><path class="cls-7" d="M317.08,53.09c0-.83.07-1.88.11-2.71h-.1c-.48.73-1,1.46-1.5,2.19L312.16,57h9.13v1.77H309.8v-1.5l6.86-9h2.52V62.57h-2.1Z"/></g><g class="cls-14"><path class="cls-7" d="M396.25,22.3l.78-1.06a4,4,0,0,0,2.81,1.15,2.23,2.23,0,0,0,2.48-2.17c0-1.36-1-2.09-2.39-2.09a3.54,3.54,0,0,0-2,.6l-.81-.52.32-5.08h6v1.4h-4.6l-.25,2.78a4.38,4.38,0,0,1,1.78-.38c2,0,3.58,1,3.58,3.26A3.64,3.64,0,0,1,400,23.74,5.22,5.22,0,0,1,396.25,22.3Z"/></g><rect class="cls-1" x="149.22" y="121.78" width="153.66" height="153.66"/><rect class="cls-15" x="154.38" y="114.48" width="153.66" height="153.66"/><rect class="cls-4" x="170.48" y="131.5" width="121.47" height="4.61"/><rect class="cls-9" x="170.48" y="164.81" width="77.35" height="4.61"/><rect class="cls-9" x="170.48" y="195.74" width="75.05" height="4.61"/><rect class="cls-9" x="170.48" y="211.2" width="102.31" height="4.61"/><path class="cls-3" d="M269.73,165.22l-.52-.54a.12.12,0,0,0-.09,0,.09.09,0,0,0-.08,0l-3.67,3.69L264,167a.18.18,0,0,0-.09,0,.12.12,0,0,0-.08,0l-.54.53a.11.11,0,0,0,0,.17h0l1.69,1.68a.51.51,0,0,0,.35.17.55.55,0,0,0,.35-.17h0l4-4a.14.14,0,0,0,0-.17Z"/><path class="cls-3" d="M266.53,161.7a5.41,5.41,0,1,1-3.82,1.58,5.42,5.42,0,0,1,3.82-1.58m0-.84a6.26,6.26,0,1,0,6.25,6.26h0a6.24,6.24,0,0,0-6.25-6.24Z"/><path class="cls-3" d="M269.73,196.15l-.52-.55-.09,0a.11.11,0,0,0-.08,0l-3.67,3.7L264,198l-.09,0a.2.2,0,0,0-.08,0l-.54.54a.11.11,0,0,0,0,.17h0l1.69,1.68a.57.57,0,0,0,.35.18.68.68,0,0,0,.35-.17h0l4-4a.14.14,0,0,0,0-.17Z"/><path class="cls-3" d="M266.53,192.65a5.41,5.41,0,1,1-3.82,1.58,5.33,5.33,0,0,1,3.82-1.58m0-.86a6.26,6.26,0,1,0,6.25,6.26h0a6.24,6.24,0,0,0-6.24-6.25Z"/><ellipse class="cls-1" cx="220.3" cy="336.3" rx="30.7" ry="5.15"/><path class="cls-12" d="M56.27,298s1.6,2.09-.74,5.26-4.27,5.83-3.49,7.8c0,0,3.53-5.87,6.41-6S59.43,301.57,56.27,298Z"/><path class="cls-9" d="M56.27,298a2.55,2.55,0,0,1,.33.66c2.8,3.29,4.3,6.37,1.6,6.44-2.51.08-5.52,4.57-6.24,5.7a2.58,2.58,0,0,0,.08.26s3.53-5.87,6.41-6S59.43,301.57,56.27,298Z"/><path class="cls-16" d="M59.25,300.71c0,.74-.09,1.34-.19,1.34s-.18-.6-.18-1.34.1-.39.2-.39S59.25,300,59.25,300.71Z"/><path class="cls-16" d="M60.27,301.59c-.65.35-1.21.57-1.26.48s.43-.43,1.08-.81.39-.09.43,0S60.91,301.24,60.27,301.59Z"/><path class="cls-12" d="M47.81,298s-1.6,2.09.74,5.26,4.27,5.83,3.49,7.8c0,0-3.53-5.87-6.4-6S44.65,301.57,47.81,298Z"/><path class="cls-9" d="M47.81,298a2.55,2.55,0,0,0-.33.66c-2.8,3.29-4.29,6.37-1.6,6.44,2.51.08,5.52,4.57,6.25,5.7a2.67,2.67,0,0,1-.09.26s-3.53-5.87-6.4-6S44.65,301.57,47.81,298Z"/><path class="cls-16" d="M44.83,300.71c0,.74.08,1.34.19,1.34s.18-.6.18-1.34-.1-.39-.2-.39S44.83,300,44.83,300.71Z"/><path class="cls-16" d="M43.81,301.59c.65.35,1.21.57,1.26.48s-.43-.43-1.08-.81-.39-.09-.43,0S43.16,301.24,43.81,301.59Z"/><ellipse class="cls-1" cx="52.04" cy="324.55" rx="16.74" ry="2.57"/><path class="cls-17" d="M60.66,308.27l-.08.66-.11.92,0,.39-.11.92-.05.39-.12.92L58.85,323c-.11.94-1.64,1.67-3.49,1.67H48.71c-1.85,0-3.38-.73-3.49-1.67l-1.29-10.5-.11-.92,0-.39-.11-.92,0-.39-.11-.92-.09-.66c-.06-.52.77-1,1.81-1H58.84C59.89,307.3,60.72,307.75,60.66,308.27Z"/><polygon class="cls-18" points="60.58 308.93 60.47 309.85 43.62 309.85 43.5 308.93 60.58 308.93"/><polygon class="cls-18" points="60.42 310.24 60.31 311.16 43.77 311.16 43.66 310.24 60.42 310.24"/><polygon class="cls-18" points="60.26 311.55 60.14 312.47 43.93 312.47 43.82 311.55 60.26 311.55"/><path class="cls-9" d="M254,198.5c-.29-.59-2.58-8.17-2.58-8.17L247,179.12s-2.67-14.74-6.67-11.06,2.15,12.5,2.15,12.5,2.52,6.45,2.39,7.74,1.41,6,1.41,6l-.5,2.72c-.65,0-1.07,0-1.07,0s-.4.57-.77.61a.31.31,0,0,1-.19,0,10.75,10.75,0,0,0-2.58-.15,5.67,5.67,0,0,1-1.93-.62c-.25-.5-1.66-.8-2.91-1-1-2.37-2.29-4.67-2.47-7.14a3.05,3.05,0,0,1,.37-1.94,3.17,3.17,0,0,1,.29-.35c.35-.35.77-.66,1.16-1,.19-.16.37-.33.54-.5,3.28-3.18,2.76-8.11-.22-11.52-3.44-3.94-18.95-12.42-23.64-5.16a8.22,8.22,0,0,0-.86,3.32,13.85,13.85,0,0,1-3.71,7.31c-1.55,1.65-3.59,3.18-4.49,5l0-.07a5,5,0,0,0-.46,1.29c-.45,2.28,1.09,4.48,1.89,6.7a11.91,11.91,0,0,1,.6,2.33l0-.49a15.26,15.26,0,0,1,.2,3.44c-5.63,1.15-5.63,10.86-5.63,10.86a33.12,33.12,0,0,0-.58,5.25c.12,1.38.12,4.39.12,5.13s-.7,5.25-.78,5.79h0c-.1.6-1.15,3.46,1.4,4.1a4.23,4.23,0,0,0,.56.12c.1,2.32.31,7.18.13,8.26,0,0,.93,6.52,1.7,8.16a18.92,18.92,0,0,0,1.72,2.78,3.18,3.18,0,0,1-.39,1.12c-.39.57-.19,1,.47,1.24,0,.2-.05.42-.08.67-.28,2.52-.7,7.52,0,10.06a26,26,0,0,1,1,4.63,3.53,3.53,0,0,0,.4,1.62c.43.58,1.16,6,1.16,6.83s2,8.68,1.39,10.53a11.32,11.32,0,0,0-.11,4.46,37.88,37.88,0,0,1-.76,5.56c-.4,1-.58,16.84.06,20.95s1,7.53,1,7.53-.43,3.76-.06,4.3,1,3.65.52,3.82-.69,1.45-.69,1.45c.25.37.51.73.79,1.08a4.83,4.83,0,0,1-.52-.23c.18.26.46.63.79,1l-.31,4.16a.69.69,0,0,0,.51.73,5.79,5.79,0,0,0,5.76-1.63c2.89-3,3.86-2.54,4.4-4.34.05-.19.1-.38.14-.56a1.87,1.87,0,0,0-2.66-2.1,14,14,0,0,0,.19-3.52,52.21,52.21,0,0,1-.23-6.08l-.41-21.06a28.78,28.78,0,0,1,1.62-5.79c.87-1.62.75-7.3.75-7.3l1-18.64,1-9s.92-3.13,2.08.35c0,0-.64,7-.34,8.68a77.56,77.56,0,0,1,.4,11.64c-.29,1.79-1.56,11.63-.75,14.12s1.67,5.5,1.5,6.48-.75,22.35-.75,22.35,1.56,4.11.4,5.45,0,6.65,0,6.65.14.1.38.24l0,.43-.36,4.79a.69.69,0,0,0,.52.73,5.77,5.77,0,0,0,5.75-1.63c2.89-2.95,3.87-2.54,4.4-4.34l.15-.56a1.89,1.89,0,0,0-3-1.87l-.06.06-.23.17-.11.08a16.33,16.33,0,0,0,.51-4.65,35.58,35.58,0,0,1,.29-6.31s1.68-5.68,1.72-7.93.46-18.06.46-18.06-.06-7.35.18-9.14,2.08-17.31,3.93-21.92c1.42-3.55,2.06-12.6,1.68-17.19,0-.24,0-.43-.06-.66a6.88,6.88,0,0,0,2.5-4.5s-2.08-4-4.09-5.71a7.84,7.84,0,0,1-2.4-5.87,3,3,0,0,0-.69-2.08s-.93-3-1.54-3.32a.5.5,0,0,1-.14-.1c-.43-.46-.1-1.75-.1-1.75v0a10.92,10.92,0,0,0,.38-2.74,19.49,19.49,0,0,1,.07-3.09,24.94,24.94,0,0,0,1.24-7.87,2.71,2.71,0,0,1,3-3.17l10-.1h1.14a8.44,8.44,0,0,0,1.29-1.38,2.78,2.78,0,0,0,2.21-.54C254.52,202.8,254.26,199.09,254,198.5Zm-46.56,30.09.07-1.77.4.34a2.81,2.81,0,0,1,0,1.41,1.53,1.53,0,0,1-.86,1l-.15.08-.09-1,.63,0Z"/><path class="cls-19" d="M245,201.91s5.7,3.67,7.85,1.72,1.9-5.7,1.6-6.29-2.61-8.23-2.61-8.23l-4.48-11.29s-2.73-14.87-6.79-11.18,2.19,12.61,2.19,12.61,2.58,6.5,2.43,7.8,1.43,6.08,1.43,6.08Z"/><path class="cls-20" d="M234.34,334.38c-.05.18-.09.37-.15.57-.53,1.81-1.53,1.4-4.47,4.37a5.89,5.89,0,0,1-5.85,1.64.69.69,0,0,1-.52-.73l.37-4.83.17-2.32s4.68,1.31,7.07-.35l.23-.18.07-.05a1.91,1.91,0,0,1,3.08,1.88Z"/><path class="cls-21" d="M219.65,332.56c0,.18-.09.37-.15.56-.53,1.81-1.53,1.4-4.47,4.38a5.93,5.93,0,0,1-5.84,1.65.7.7,0,0,1-.53-.74l.37-4.83.18-2.33s4.68,1.32,7.06-.34l.23-.18.07-.06a1.91,1.91,0,0,1,3.08,1.89Z"/><g class="cls-22"><path class="cls-23" d="M214.8,333.28l.19,2.51c-2.69,2.66-5.88-1.29-6.83-2.61C210.62,334.45,214.8,333.28,214.8,333.28Z"/></g><g class="cls-22"><path class="cls-24" d="M230.6,334.3l.35-.23c-2.45,3.7-6.1,2-7.23,1.33l.17-2.32s4.68,1.31,7.07-.35C230.77,333.63,230.6,334.3,230.6,334.3Z"/></g><path class="cls-25" d="M238.07,264.21c-1.88,4.67-3.76,20.31-4,22.12s-.18,9.22-.18,9.22l-.49,18.21c-.05,2.28-1.76,8-1.76,8s-.59,4.79-.29,6.37-.77,5.72-.77,5.72l.36-.24c-2.95,4.44-7.59,1.11-7.59,1.11s-1.12-5.37.05-6.71-.41-5.49-.41-5.49.59-21.53.77-22.52-.67-4-1.53-6.54.47-12.43.76-14.24a74.91,74.91,0,0,0-.43-11.73c-.31-1.7.36-8.76.36-8.76-1.18-3.5-2.12-.35-2.12-.35l-.94,9.17-1,18.81s.12,5.72-.77,7.35a28.92,28.92,0,0,0-1.64,5.84l.43,21.24a53,53,0,0,0,.23,6.13c.3,1.7-.65,6.07-.65,6.07-3.29,7.7-8.59-.64-8.59-.64s.23-1.29.7-1.46-.17-3.33-.53-3.87.06-4.3.06-4.3-.41-3.44-1.06-7.59S206.6,295,207,294a38.36,38.36,0,0,0,.77-5.58,11.4,11.4,0,0,1,.12-4.5c.59-1.87-1.42-9.74-1.42-10.62s-.76-6.3-1.17-6.88a3.34,3.34,0,0,1-.43-1.63,25.57,25.57,0,0,0-1.07-4.67c-.73-2.58-.3-7.6,0-10.14.11-.94.19-1.53.19-1.53s33.78-5.43,35.13-4.2a5.24,5.24,0,0,1,.65,2.69C240.16,251.51,239.51,260.63,238.07,264.21Z"/><g class="cls-22"><path class="cls-26" d="M225.3,290.45a31,31,0,0,0,5.26,0C232,290.22,225.3,290.45,225.3,290.45Z"/></g><g class="cls-22"><path class="cls-27" d="M225.58,292.63s5.16.9,5.41.43S225.58,292.63,225.58,292.63Z"/></g><g class="cls-22"><path class="cls-28" d="M209.85,291.7a14.43,14.43,0,0,1,4.12.78C215.42,293.14,209.85,291.7,209.85,291.7Z"/></g><path class="cls-29" d="M200.16,226.26s.43,8.13.2,9.56c0,0,.94,6.58,1.72,8.25a23.62,23.62,0,0,0,2.47,3.78l2.31-16.15-.54-5.53Z"/><ellipse class="cls-30" cx="224.48" cy="180.22" rx="9.06" ry="8.99"/><path class="cls-31" d="M219.77,184.43s-2.82,5.48-5.64,8S231.07,198,231.54,198,228,186.3,228.71,184.9,219.77,184.43,219.77,184.43Z"/><g class="cls-22"><path class="cls-32" d="M239.78,246.88a5.73,5.73,0,0,1-1.45.81c-3.61,1.4-7.53,3.35-10.2,2.58s-8.32,0-8.32,0-11.38-.94-13.65-.39a4.46,4.46,0,0,1-2.35.06c.11-.94.19-1.54.19-1.54s33.78-5.43,35.13-4.2A5.15,5.15,0,0,1,239.78,246.88Z"/></g><path class="cls-33" d="M242.25,241.7a6.55,6.55,0,0,1-3.92,5.29c-3.61,1.42-7.53,3.35-10.2,2.58s-8.32,0-8.32,0-11.38-.94-13.65-.39-3.44-.16-2.75-1.17.64-4.35.64-5.76-.79-7.08-.09-8.09,1.34-4.9,2.75-5.52a1.55,1.55,0,0,0,.88-1,2.63,2.63,0,0,0,0-1.42l-.56-.49c-.83-.74-2.24-2.1-1.79-2.55.62-.62,0-4.67,0-4.67s-1.49-3.11-.94-4.28-4.79-7.31-4.79-7.31,0-10.58,6.45-11.05c0,0,4.55.16,5.1-1.86s4.15-3.2,4.15-3.2l8.24,1.8s7.31,1.55,8.63.62,2.36,1.24,2.36,1.24,4.54.24,5,1.17-1.49,10-1.49,10a2.75,2.75,0,0,0-3.07,3.19,24.93,24.93,0,0,1-1.25,7.94,18.32,18.32,0,0,0-.08,3.11,10,10,0,0,1-.38,2.76v0s-.33,1.29.1,1.77a.71.71,0,0,0,.14.1c.62.31,1.56,3.35,1.56,3.35a3,3,0,0,1,.71,2.1,7.9,7.9,0,0,0,2.43,5.91C240.17,237.68,242.25,241.7,242.25,241.7Z"/><path class="cls-34" d="M207.26,223.69V224l-.15,3.64a30.81,30.81,0,0,1-7.45-.28c-2.63-.66-1.52-3.54-1.42-4.14h0c.08-.54.79-5.1.79-5.83s0-3.78-.12-5.16a33.32,33.32,0,0,1,.59-5.29l.51-.63,5.53,2.1Z"/><g class="cls-22"><path class="cls-35" d="M207.25,224l-.15,3.65a30.81,30.81,0,0,1-7.45-.28c-2.63-.66-1.52-3.54-1.42-4.14Z"/></g><g class="cls-22"><path class="cls-36" d="M207.61,227.64a2.63,2.63,0,0,0,0-1.42l-.56-.49c4.15-.57,20.6-2.81,26.15-3v0s-.33,1.29.1,1.77Z"/></g><g class="cls-22"><path class="cls-37" d="M233.78,230.47s1,5.72-2.79,7.74A17.39,17.39,0,0,0,233.78,230.47Z"/></g><g class="cls-22"><path class="cls-38" d="M208.87,238.36s9.18-1.56,11-.36S208.87,238.36,208.87,238.36Z"/></g><g class="cls-22"><path class="cls-39" d="M230.6,202.91s-1.41,5.76-.35,7.08S230.6,202.91,230.6,202.91Z"/></g><g class="cls-22"><path class="cls-40" d="M204,198.2a5.67,5.67,0,0,1,.51,4.36C203.74,204.77,204,198.2,204,198.2Z"/></g><path class="cls-41" d="M201.34,217s1.64,1,1.09,2.5S201.34,217,201.34,217Z"/><g class="cls-22"><path class="cls-42" d="M201.17,212.52s1.53.82,1.72,2S201.17,212.52,201.17,212.52Z"/></g><g class="cls-22"><path class="cls-43" d="M223.85,259.05s9.61,1,11.54-1.29C235.39,257.77,226.72,259.48,223.85,259.05Z"/></g><g class="cls-22"><path class="cls-44" d="M207.26,258.51s10.32,2.41,12.36.5C219.62,259,210.75,259.68,207.26,258.51Z"/></g><g class="cls-22"><path class="cls-45" d="M224.6,262.21s4.3,0,6.31.11S224.6,262.21,224.6,262.21Z"/></g><g class="cls-22"><path class="cls-46" d="M208,264s2.12,2.38,4.51,2S208,264,208,264Z"/></g><path class="cls-47" d="M212.13,166.86a7.81,7.81,0,0,0-.86,3.34,13.93,13.93,0,0,1-3.77,7.38c-1.88,2-4.46,3.79-4.95,6.21s1.11,4.52,1.93,6.76c2.15,5.91-.86,12.1-1.74,18.2-.25,1.69,0,3.84,2.14,4.4a12.07,12.07,0,0,1,2,.43,2.37,2.37,0,0,1,1.18,1.85,28.69,28.69,0,0,1,.54,7.62c-.1,1.44-.2,3.09,1.16,4.07A6.89,6.89,0,0,0,212,228c2.15.58,4.93,1,6.38-.31.61-.56.86-1.36,1.59-1.81,1.14-.66,2.75-.21,4.18-.14a7.59,7.59,0,0,0,6.8-3.62,9.66,9.66,0,0,0,.63-6.65,41.91,41.91,0,0,1-1.23-6.68,3.85,3.85,0,0,1,.51-2.27c.86-1.34,2.91-1.95,4.3-3,2.6-2,2.58-5.22,1.65-7.93s-2.65-5.31-2.86-8.11a3,3,0,0,1,.39-2,7.36,7.36,0,0,1,1.58-1.47c3.8-3.19,3.35-8.42.21-12C232.65,168.07,216.88,159.52,212.13,166.86Z"/><g class="cls-22"><path class="cls-48" d="M205,193a14.63,14.63,0,0,0-.6-7c-.43-1.13-1-2.26-1.45-3.39a5,5,0,0,0-.48,1.29c-.46,2.3,1.11,4.52,1.93,6.76A11.92,11.92,0,0,1,205,193Z"/><path class="cls-49" d="M208.47,218.48a27.88,27.88,0,0,0-.54-7.62,2.34,2.34,0,0,0-1.17-1.85,11.52,11.52,0,0,0-2-.43,2.69,2.69,0,0,1-1.83-1.5c-.12.59-.23,1.18-.31,1.77-.25,1.69.05,3.84,2.15,4.4a11.52,11.52,0,0,1,2,.43,2.39,2.39,0,0,1,1.17,1.85,29.84,29.84,0,0,1,.51,3.52C208.44,218.87,208.47,218.67,208.47,218.48Z"/><path class="cls-50" d="M230.83,217.58a7.61,7.61,0,0,1-6.8,3.62c-1.43-.07-3-.52-4.17.14-.76.43-1,1.25-1.6,1.81-1.45,1.35-4.23.89-6.38.31a6.89,6.89,0,0,1-2.26-.89,2.8,2.8,0,0,1-1.11-1.8c0,.8,0,1.6,0,2.4-.1,1.44-.2,3.08,1.16,4.07a6.89,6.89,0,0,0,2.26.89c2.15.58,4.93,1,6.38-.31.61-.56.86-1.36,1.6-1.8,1.13-.68,2.74-.22,4.17-.15a7.59,7.59,0,0,0,6.8-3.62,9.4,9.4,0,0,0,.67-6.39A6.68,6.68,0,0,1,230.83,217.58Z"/><path class="cls-51" d="M235.81,179.49a7.94,7.94,0,0,0-1.59,1.47,3.13,3.13,0,0,0-.38,2,9.71,9.71,0,0,0,.54,2.5,10.15,10.15,0,0,1,1.43-1.26,7.5,7.5,0,0,0,2.36-8.13A7.42,7.42,0,0,1,235.81,179.49Z"/><path class="cls-52" d="M235.05,199c-1.4,1-3.44,1.66-4.3,3a3.81,3.81,0,0,0-.51,2.26,15.33,15.33,0,0,0,.34,2.71,2.28,2.28,0,0,1,.17-.3c.86-1.34,2.9-1.95,4.3-3,2.37-1.81,2.58-4.66,1.87-7.21A5.45,5.45,0,0,1,235.05,199Z"/></g><path class="cls-53" d="M253,199.92a13.73,13.73,0,0,1-3.69,5.63h-1.16l-10.18.11-1.17-3.19,1.65-6.88,1,.07a5.9,5.9,0,0,0,2,.62,11.08,11.08,0,0,1,2.63.15.32.32,0,0,0,.19,0c.38,0,.79-.61.79-.61S254.57,195.87,253,199.92Z"/><g class="cls-22"><path class="cls-54" d="M253,199.92a13.73,13.73,0,0,1-3.69,5.63h-1.16a55.24,55.24,0,0,1,2.38-5.65c.5-.75-3.79-2.51-6.28-3.48.38,0,.79-.61.79-.61S254.57,195.87,253,199.92Z"/></g><path class="cls-55" d="M244.67,203.05s5.58,3.64,7.73,1.69,1.86-5.65,1.58-6.24-2.58-8.17-2.58-8.17L247,179.12s-2.67-14.74-6.67-11.06,2.15,12.5,2.15,12.5,2.52,6.45,2.39,7.74,1.41,6,1.41,6Z"/><path class="cls-56" d="M234.21,334.43c0,.18-.1.37-.15.57-.52,1.79-1.51,1.39-4.4,4.34a5.8,5.8,0,0,1-5.75,1.63.71.71,0,0,1-.52-.73l.36-4.79.18-2.31s4.61,1.29,6.95-.34l.23-.18.06-.06a1.89,1.89,0,0,1,2.65.26A1.84,1.84,0,0,1,234.21,334.43Z"/><path class="cls-56" d="M219.74,332.63c0,.18-.09.36-.14.56-.52,1.79-1.51,1.39-4.4,4.34a5.77,5.77,0,0,1-5.75,1.63.71.71,0,0,1-.52-.73l.36-4.79.18-2.3s4.61,1.28,6.95-.35a2,2,0,0,0,.23-.18l.06-.06a1.88,1.88,0,0,1,3,1.88Z"/><path class="cls-9" d="M215,333.35l.18,2.49c-2.64,2.63-5.79-1.29-6.72-2.58C210.89,334.49,215,333.35,215,333.35Z"/><path class="cls-9" d="M230.53,334.36l.35-.23c-2.42,3.67-6,2-7.13,1.32l.18-2.31s4.61,1.29,6.95-.34C230.7,333.69,230.53,334.36,230.53,334.36Z"/><path class="cls-57" d="M237.88,264.86C236,269.49,234.17,285,234,286.78s-.18,9.14-.18,9.14L233.31,314c-.06,2.25-1.72,7.93-1.72,7.93a35.52,35.52,0,0,0-.29,6.31c.29,1.58-.75,5.67-.75,5.67l.34-.23c-2.89,4.4-7.46,1.1-7.46,1.1s-1.1-5.32,0-6.66-.4-5.44-.4-5.44.58-21.36.75-22.35-.69-4-1.5-6.48.46-12.34.75-14.13a78.77,78.77,0,0,0-.4-11.63c-.29-1.68.34-8.69.34-8.69-1.16-3.47-2.08-.34-2.08-.34l-.93,9.08-1,18.66s.12,5.67-.75,7.31a28.88,28.88,0,0,0-1.62,5.77l.4,21.06a52.87,52.87,0,0,0,.24,6.08c.28,1.67-.64,6-.64,6-3.24,7.63-8.45-.64-8.45-.64s.23-1.29.69-1.45-.17-3.3-.52-3.82.06-4.3.06-4.3-.43-3.42-1-7.53-.46-20-.06-20.95a37.45,37.45,0,0,0,.75-5.56,11.4,11.4,0,0,1,.12-4.46c.58-1.85-1.39-9.66-1.39-10.53s-.75-6.25-1.16-6.83a3.53,3.53,0,0,1-.4-1.62,26,26,0,0,0-1-4.63c-.72-2.54-.3-7.54,0-10,.1-.94.19-1.53.19-1.53S237.61,243.74,239,245a5.41,5.41,0,0,1,.63,2.67C239.94,252.24,239.3,261.29,237.88,264.86Z"/><path class="cls-9" d="M225.32,290.87a31.15,31.15,0,0,0,5.16,0C231.81,290.63,225.32,290.87,225.32,290.87Z"/><path class="cls-9" d="M225.59,293s5,.89,5.33.43S225.59,293,225.59,293Z"/><path class="cls-9" d="M210.12,292.1a14.05,14.05,0,0,1,4,.77C215.59,293.53,210.12,292.1,210.12,292.1Z"/><path class="cls-55" d="M200.58,227.19s.43,8.07.2,9.49c0,0,.92,6.53,1.69,8.17a23.1,23.1,0,0,0,2.44,3.74l2.27-16-.53-5.48Z"/><circle class="cls-55" cx="224.51" cy="181.54" r="8.91"/><path class="cls-55" d="M219.88,185.71s-2.78,5.44-5.56,8,16.67,5.44,17.14,5.44-3.48-11.58-2.78-13S219.88,185.71,219.88,185.71Z"/><path class="cls-9" d="M239.56,247.67a6.09,6.09,0,0,1-1.43.8c-3.55,1.39-7.41,3.32-10,2.54s-8.17,0-8.17,0-11.18-.92-13.43-.38a4.35,4.35,0,0,1-2.32.05c.1-.94.18-1.53.18-1.53s33.23-5.38,34.56-4.17A5.34,5.34,0,0,1,239.56,247.67Z"/><path class="cls-12" d="M242,242.51a6.47,6.47,0,0,1-3.87,5.25c-3.56,1.38-7.41,3.31-10,2.55s-8.17,0-8.17,0-11.18-.93-13.43-.39-3.4-.16-2.7-1.16.62-4.3.62-5.71-.78-7-.08-8,1.29-4.86,2.7-5.48a1.5,1.5,0,0,0,.86-1,2.81,2.81,0,0,0,0-1.41l-.56-.48c-.81-.73-2.2-2.09-1.75-2.53.61-.62,0-4.63,0-4.63s-1.47-3.09-.93-4.25-4.73-7.25-4.73-7.25,0-10.5,6.33-11c0,0,4.48.15,5-1.85s4.09-3.17,4.09-3.17l8.11,1.78s7.17,1.54,8.48.62,2.3,1.23,2.3,1.23,4.48.23,4.94,1.15-1.46,10-1.46,10a2.7,2.7,0,0,0-3,3.16,25,25,0,0,1-1.24,7.88,19,19,0,0,0-.08,3.08,9.82,9.82,0,0,1-.37,2.74v0s-.32,1.29.1,1.75a.69.69,0,0,0,.13.11c.62.3,1.55,3.31,1.55,3.31a3,3,0,0,1,.69,2.08,7.82,7.82,0,0,0,2.39,5.87C239.91,238.49,242,242.51,242,242.51Z"/><path class="cls-12" d="M207.57,224.64V225l-.15,3.61a29.4,29.4,0,0,1-7.3-.27c-2.58-.66-1.5-3.51-1.4-4.1h0c.08-.55.77-5.06.77-5.79s0-3.75-.11-5.14A33.26,33.26,0,0,1,200,208l.51-.61,5.44,2.08Z"/><path class="cls-9" d="M207.55,225l-.14,3.61a29.48,29.48,0,0,1-7.31-.27c-2.57-.66-1.49-3.51-1.39-4.1Z"/><path class="cls-9" d="M207.9,228.56a2.81,2.81,0,0,0,0-1.41l-.56-.48c4.09-.56,20.27-2.79,25.73-3v0s-.32,1.29.1,1.75Z"/><path class="cls-9" d="M233.65,231.36s1,5.67-2.73,7.68A17.25,17.25,0,0,0,233.65,231.36Z"/><path class="cls-9" d="M209.15,239.19s9-1.54,10.8-.34S209.15,239.19,209.15,239.19Z"/><path class="cls-9" d="M230.53,204s-1.39,5.71-.35,7S230.53,204,230.53,204Z"/><path class="cls-9" d="M204.36,199.37a5.56,5.56,0,0,1,.51,4.32C204.08,205.89,204.36,199.37,204.36,199.37Z"/><path class="cls-12" d="M201.74,218s1.62,1,1.08,2.47S201.74,218,201.74,218Z"/><path class="cls-9" d="M201.6,213.57s1.5.81,1.69,2S201.6,213.57,201.6,213.57Z"/><path class="cls-9" d="M223.89,259.72s9.46,1,11.35-1.29C235.24,258.45,226.71,260.13,223.89,259.72Z"/><path class="cls-9" d="M207.57,259.18s10.15,2.4,12.15.5C219.72,259.7,211,260.34,207.57,259.18Z"/><path class="cls-9" d="M224.62,262.85s4.25,0,6.22.11S224.62,262.85,224.62,262.85Z"/><path class="cls-9" d="M208.26,264.66s2.09,2.36,4.44,1.93S208.26,264.66,208.26,264.66Z"/><path class="cls-58" d="M212.34,168.26a8.33,8.33,0,0,0-.86,3.31,13.87,13.87,0,0,1-3.7,7.31c-1.85,2-4.39,3.75-4.87,6.15s1.08,4.48,1.89,6.71c2.15,5.85-.86,12-1.72,18-.24,1.67,0,3.81,2.11,4.36a11.18,11.18,0,0,1,2,.43,2.35,2.35,0,0,1,1.15,1.84,27.78,27.78,0,0,1,.53,7.56c-.09,1.42-.19,3.05,1.15,4a6.68,6.68,0,0,0,2.22.89c2.12.57,4.85,1,6.28-.31.6-.56.82-1.35,1.57-1.79,1.12-.66,2.7-.22,4.11-.15a7.44,7.44,0,0,0,6.68-3.59,9.61,9.61,0,0,0,.62-6.59,41,41,0,0,1-1.2-6.63,3.74,3.74,0,0,1,.5-2.24c.86-1.34,2.86-1.94,4.23-3,2.58-2,2.55-5.15,1.62-7.86s-2.61-5.26-2.81-8.05a3.05,3.05,0,0,1,.37-1.94,8,8,0,0,1,1.6-1.42c3.74-3.16,3.3-8.35.2-11.9C232.54,169.48,217,161,212.34,168.26Z"/><g class="cls-22"><path d="M205.31,194.2a14.69,14.69,0,0,0-.6-7c-.4-1.12-1-2.23-1.43-3.35a4.84,4.84,0,0,0-.46,1.29c-.45,2.28,1.08,4.47,1.89,6.7A11.64,11.64,0,0,1,205.31,194.2Z"/><path d="M208.75,219.49a27.88,27.88,0,0,0-.53-7.57,2.34,2.34,0,0,0-1.15-1.83,11.18,11.18,0,0,0-2-.43,2.7,2.7,0,0,1-1.8-1.49c-.12.58-.22,1.17-.31,1.76-.24,1.67.05,3.8,2.11,4.36a11.18,11.18,0,0,1,2,.43,2.35,2.35,0,0,1,1.15,1.84,27.41,27.41,0,0,1,.5,3.49Z"/><path d="M230.76,218.57a7.44,7.44,0,0,1-6.68,3.59c-1.41-.07-3-.52-4.11.15-.75.43-1,1.23-1.57,1.79-1.43,1.33-4.16.88-6.28.31a6.9,6.9,0,0,1-2.22-.89,2.81,2.81,0,0,1-1.1-1.78c0,.79,0,1.58-.05,2.38-.09,1.42-.19,3,1.15,4a7.13,7.13,0,0,0,2.22.89c2.12.57,4.85,1,6.28-.31.6-.56.82-1.35,1.57-1.8,1.12-.66,2.7-.21,4.11-.14a7.44,7.44,0,0,0,6.68-3.59,9.37,9.37,0,0,0,.67-6.34A7,7,0,0,1,230.76,218.57Z"/><path d="M235.65,180.81a7.71,7.71,0,0,0-1.56,1.46,3.13,3.13,0,0,0-.38,1.94,10.46,10.46,0,0,0,.54,2.48,10.34,10.34,0,0,1,1.4-1.25,7.51,7.51,0,0,0,2.33-8.06A7.37,7.37,0,0,1,235.65,180.81Z"/><path d="M234.9,200.12c-1.37,1-3.37,1.65-4.23,3a3.84,3.84,0,0,0-.49,2.25,15.1,15.1,0,0,0,.33,2.68,2.19,2.19,0,0,1,.16-.3c.86-1.33,2.86-1.93,4.23-3,2.34-1.79,2.54-4.62,1.85-7.15A5.47,5.47,0,0,1,234.9,200.12Z"/></g><path class="cls-12" d="M252.53,201.07a13.51,13.51,0,0,1-3.63,5.58h-1.14l-10,.11-1.16-3.17,1.62-6.83,1,0a5.74,5.74,0,0,0,1.93.62,10.15,10.15,0,0,1,2.58.16.41.41,0,0,0,.19,0c.38,0,.77-.6.77-.6S254.11,197.05,252.53,201.07Z"/><path class="cls-9" d="M252.53,201.07a13.51,13.51,0,0,1-3.63,5.58h-1.14a50.28,50.28,0,0,1,2.34-5.58c.49-.74-3.73-2.49-6.18-3.44.38,0,.77-.61.77-.61S254.11,197.05,252.53,201.07Z"/></g></g></svg>