<svg xmlns="http://www.w3.org/2000/svg" viewBox="0 0 23.76 19.45"><defs><style>.cls-1{fill:#3acc6c;}</style></defs><title>twitter</title><g id="Layer_2" data-name="Layer 2"><g id="Layer_7" data-name="Layer 7"><path class="cls-1" d="M8.87,19.45a20,20,0,0,1-3.15-.25,14.62,14.62,0,0,1-4.31-1.57L0,16.86l1.52-.5c1.67-.55,2.68-.89,3.94-1.42a5.2,5.2,0,0,1-2.69-3.12l-.36-1.07.29,0A5.65,5.65,0,0,1,2,10a5,5,0,0,1-.85-3l.07-.94.56.22a5.2,5.2,0,0,1-.51-1.43,5.47,5.47,0,0,1,.58-3.66l.49-.9L3,1.07a12,12,0,0,0,7.81,4.4A4.69,4.69,0,0,1,11.13,3,4.67,4.67,0,0,1,13,.82,5.74,5.74,0,0,1,16.32,0a5.3,5.3,0,0,1,3.23,1.33A10.33,10.33,0,0,0,20.74,1l.92-.34L23,.15l-.89,2.52h.18l1.45-.06-.85,1.17-.08.11c-.07.1-.16.23-1.33,1.8a2.26,2.26,0,0,0-.42,1.45,13.48,13.48,0,0,1-.74,5.48,9.8,9.8,0,0,1-2.61,3.87,11.5,11.5,0,0,1-5.46,2.63A16.27,16.27,0,0,1,8.87,19.45Z"/></g></g></svg>